<svg width="16" height="14" viewBox="0 0 16 14" fill="green" xmlns="http://www.w3.org/2000/svg">
<path d="M13.5265 2.15489L13.527 2.15538C15.0158 3.61591 15.0138 5.87926 13.5292 7.3288L13.5292 7.32888L8.00046 12.7295L2.47176 7.32888L2.47168 7.3288C0.986894 5.87904 0.985311 3.61569 2.47108 2.15817L2.47108 2.15818L2.47182 2.15745C2.81999 1.81449 3.23479 1.54155 3.69266 1.35492C4.15046 1.16832 4.64191 1.07183 5.13865 1.07129C6.07683 1.07138 6.97884 1.41578 7.66634 2.0333L8.00041 2.33336L8.33452 2.03334C9.02213 1.41589 9.92415 1.07149 10.8624 1.07129C11.3585 1.07169 11.8494 1.16788 12.3067 1.35404C12.7641 1.54023 13.1785 1.81258 13.5265 2.15489Z" stroke="white" stroke-opacity="0.7"/>
</svg>
