<svg width="17" height="19" viewBox="0 0 17 19" fill="none" xmlns="http://www.w3.org/2000/svg">
<path d="M0.726821 7.49149L7.85182 0.712117C8.0427 0.530554 8.30155 0.428558 8.57145 0.428558C8.84135 0.428558 9.10019 0.530554 9.29107 0.712117L16.4161 7.49149C16.607 7.67307 16.7142 7.91937 16.7143 8.17621V17.4601C16.7143 17.7169 16.6071 17.9633 16.4162 18.1449C16.2253 18.3265 15.9664 18.4286 15.6964 18.4286H10.6072V11.6492H6.53573V18.4286H1.44645C1.17649 18.4286 0.917598 18.3265 0.726713 18.1449C0.535827 17.9633 0.428589 17.7169 0.428589 17.4601V8.17621C0.428647 7.91937 0.535923 7.67307 0.726821 7.49149Z" fill="white"/>
</svg>
