<svg width="24" height="24" viewBox="0 0 24 24" fill="none" xmlns="http://www.w3.org/2000/svg">
<path fill-rule="evenodd" clip-rule="evenodd" d="M12 22.5C17.799 22.5 22.5 17.7989 22.5 12C22.5 6.20109 17.799 1.50001 12 1.50001C6.20112 1.50001 1.50004 6.20109 1.50004 12C1.50004 17.7989 6.20112 22.5 12 22.5ZM12 23.6667C18.4435 23.6667 23.6667 18.4435 23.6667 12C23.6667 5.55651 18.4435 0.333344 12 0.333344C5.55654 0.333344 0.333374 5.55651 0.333374 12C0.333374 18.4435 5.55654 23.6667 12 23.6667Z" fill="white"/>
<path d="M5 18.7842C5 18.1816 5.45033 17.6724 6.05 17.6059C10.5504 17.1077 13.47 17.1526 17.9605 17.6169C18.1847 17.6405 18.3973 17.7288 18.5721 17.8712C18.747 18.0135 18.8766 18.2037 18.9452 18.4185C19.0137 18.6333 19.0182 18.8634 18.9581 19.0807C18.898 19.2981 18.776 19.4932 18.6068 19.6423C13.3073 24.2617 10.2786 24.1981 5.37333 19.6469C5.13417 19.4253 5 19.1103 5 18.7848V18.7842Z" fill="white"/>
<path fill-rule="evenodd" clip-rule="evenodd" d="M17.9005 18.1967C13.4456 17.7359 10.568 17.6927 6.11367 18.1857C5.81384 18.2189 5.58342 18.475 5.58342 18.7847C5.58342 18.9516 5.65283 19.1097 5.77008 19.2193C8.20142 21.4745 10.0436 22.4936 11.8443 22.5C13.6515 22.5064 15.5928 21.4955 18.2237 19.203C18.3072 19.1286 18.3674 19.0315 18.3969 18.9236C18.4263 18.8156 18.4238 18.7015 18.3895 18.5949C18.3553 18.4884 18.2909 18.3941 18.204 18.3235C18.1172 18.253 18.0118 18.2091 17.9005 18.1973V18.1967ZM5.98592 17.026C10.5336 16.5226 13.4958 16.5681 18.0213 17.0365C18.3586 17.0717 18.6784 17.2045 18.9414 17.4187C19.2044 17.6328 19.3993 17.919 19.5022 18.2422C19.6051 18.5654 19.6115 18.9116 19.5206 19.2383C19.4298 19.5651 19.2457 19.8583 18.9908 20.0821C16.322 22.4084 14.0995 23.6754 11.8408 23.6667C9.57575 23.6585 7.45125 22.3699 4.97734 20.0745C4.80021 19.9095 4.65901 19.7098 4.56255 19.4878C4.4661 19.2657 4.41646 19.0262 4.41675 18.7842C4.4159 18.3492 4.57554 17.9293 4.86508 17.6048C5.15462 17.2803 5.55372 17.074 5.98592 17.0254V17.026Z" fill="white"/>
<path d="M16.6667 9.66667C16.6667 10.9043 16.175 12.0913 15.2999 12.9665C14.4247 13.8417 13.2377 14.3333 12 14.3333C10.7624 14.3333 9.57538 13.8417 8.70021 12.9665C7.82504 12.0913 7.33337 10.9043 7.33337 9.66667C7.33337 8.42899 7.82504 7.242 8.70021 6.36683C9.57538 5.49166 10.7624 5 12 5C13.2377 5 14.4247 5.49166 15.2999 6.36683C16.175 7.242 16.6667 8.42899 16.6667 9.66667Z" fill="white"/>
<path fill-rule="evenodd" clip-rule="evenodd" d="M12 13.1667C12.9283 13.1667 13.8185 12.7979 14.4749 12.1415C15.1313 11.4852 15.5 10.5949 15.5 9.66667C15.5 8.73841 15.1313 7.84817 14.4749 7.19179C13.8185 6.53542 12.9283 6.16667 12 6.16667C11.0718 6.16667 10.1815 6.53542 9.52517 7.19179C8.86879 7.84817 8.50004 8.73841 8.50004 9.66667C8.50004 10.5949 8.86879 11.4852 9.52517 12.1415C10.1815 12.7979 11.0718 13.1667 12 13.1667ZM12 14.3333C13.2377 14.3333 14.4247 13.8417 15.2999 12.9665C16.175 12.0913 16.6667 10.9043 16.6667 9.66667C16.6667 8.42899 16.175 7.242 15.2999 6.36683C14.4247 5.49166 13.2377 5 12 5C10.7624 5 9.57538 5.49166 8.70021 6.36683C7.82504 7.242 7.33337 8.42899 7.33337 9.66667C7.33337 10.9043 7.82504 12.0913 8.70021 12.9665C9.57538 13.8417 10.7624 14.3333 12 14.3333Z" fill="white"/>
</svg>
