<svg width="760" height="624" viewBox="0 0 760 624" fill="none" xmlns="http://www.w3.org/2000/svg">
<g clip-path="url(#clip0_810_6805)">
<path d="M762.864 312.415C753.674 308.404 744.378 304.019 734.814 299.046C725.25 294.019 715.473 288.511 705.374 281.881L703.504 280.651L701.581 279.367L697.788 276.747L693.941 273.966L692.979 273.271L692.017 272.522L690.094 271.079C684.965 267.121 679.729 262.897 674.546 258.031C669.31 253.218 664.127 247.977 658.998 242.095C657.716 240.598 656.434 239.1 655.205 237.55L654.777 237.015L654.457 236.587L653.816 235.785L652.533 234.127L647.458 227.55C646.603 226.427 645.748 225.357 644.946 224.234L642.489 220.812L637.627 213.914C636.825 212.791 636.024 211.561 635.276 210.384L632.978 206.801C631.429 204.395 629.879 202.042 628.383 199.582L624.002 192.096C622.56 189.582 621.117 187.123 619.781 184.502L615.721 176.748L614.706 174.823C614.385 174.182 614.064 173.486 613.744 172.845L611.874 168.834C610.645 166.16 609.363 163.487 608.187 160.759L604.821 152.417L603.165 148.246L601.669 143.968C600.654 141.081 599.692 138.246 598.73 135.359C597.822 132.471 596.967 129.476 596.112 126.535L594.83 122.097C594.403 120.6 594.082 119.102 593.708 117.605C592.96 114.61 592.265 111.562 591.571 108.568C590.93 105.52 590.395 102.418 589.808 99.37L589.006 94.771C588.739 93.22 588.579 91.669 588.365 90.065C587.938 86.91 587.564 83.809 587.19 80.654C586.923 77.499 586.655 74.29 586.442 71.135C586.335 69.531 586.228 67.98 586.121 66.376L586.014 61.563C585.587 48.782 586.388 35.841 587.991 22.954C588.419 19.745 588.899 16.537 589.38 13.328C589.968 10.12 590.609 6.911 591.25 3.756L591.731 1.35001L591.998 0.173996L592.319 -1.00301L593.494 -5.76199L594.723 -10.522C594.937 -11.324 595.151 -12.126 595.364 -12.874L596.059 -15.227C597.021 -18.329 598.036 -21.43 599.051 -24.532C600.12 -27.634 601.295 -30.682 602.47 -33.73C603.058 -35.227 603.592 -36.778 604.234 -38.275L606.157 -42.767L608.134 -47.259L609.149 -49.505C609.47 -50.254 609.844 -50.949 610.218 -51.697C611.66 -54.585 613.156 -57.526 614.652 -60.414L615.24 -61.483L615.828 -62.553L617.003 -64.692L619.407 -68.916C620.209 -70.307 621.01 -71.751 621.865 -73.087L624.483 -77.152L627.155 -81.216C628.063 -82.553 628.918 -83.943 629.879 -85.226C631.749 -87.847 633.673 -90.467 635.543 -93.034C636.505 -94.371 637.52 -95.6 638.481 -96.83L641.527 -100.574L644.572 -104.263C645.587 -105.493 646.656 -106.67 647.725 -107.846C649.862 -110.199 651.999 -112.606 654.19 -114.905C658.624 -119.397 663.112 -123.942 667.814 -128.113L671.34 -131.268C671.928 -131.803 672.516 -132.338 673.103 -132.819L674.92 -134.316C677.324 -136.295 679.782 -138.274 682.186 -140.252C682.774 -140.734 683.415 -141.215 684.056 -141.696L685.926 -143.086L689.666 -145.867L693.46 -148.594C694.742 -149.45 696.024 -150.306 697.307 -151.161C699.871 -152.872 702.436 -154.584 705.054 -156.241C707.672 -157.846 710.29 -159.396 712.961 -160.947C714.297 -161.696 715.579 -162.498 716.915 -163.246L720.922 -165.386C723.594 -166.776 726.319 -168.273 728.99 -169.61L737.165 -173.46L739.195 -174.423C739.89 -174.744 740.584 -175.065 741.279 -175.332L745.446 -177.043C748.224 -178.166 751.003 -179.343 753.781 -180.412L762.169 -183.46C763.559 -183.941 764.948 -184.476 766.39 -184.958L770.611 -186.294L779.053 -188.861C801.65 -195.225 824.47 -198.861 846.91 -200.305L849.04 -200.465L851.13 -200.572L855.3 -200.733L863.68 -201L872.02 -200.947L876.19 -200.893H878.27C878.97 -200.893 879.66 -200.84 880.35 -200.786L888.58 -200.412L892.7 -200.198C894.09 -200.144 895.42 -199.984 896.76 -199.877L904.88 -199.182C906.21 -199.075 907.6 -198.968 908.94 -198.808L912.95 -198.326C934.42 -195.759 955.31 -191.428 975.4 -185.866C995.55 -180.252 1014.94 -173.353 1033.64 -165.439C1052.29 -157.525 1070.19 -148.541 1087.44 -138.915L1093.91 -135.279L1097.12 -133.461C1098.18 -132.819 1099.2 -132.178 1100.27 -131.589L1112.82 -123.942C1116.94 -121.322 1121 -118.648 1125.11 -116.028L1128.16 -114.049L1129.71 -113.033L1131.2 -112.017L1137.19 -107.9L1143.17 -103.782C1144.19 -103.087 1145.15 -102.392 1146.16 -101.697L1149.05 -99.558L1160.7 -91.055C1161.18 -90.681 1161.71 -90.306 1162.14 -89.986L1163.47 -88.97L1166.15 -86.938L1171.43 -82.873C1174.96 -80.2 1178.49 -77.472 1182.01 -74.745L1077.4 60.173C1074.25 57.713 1071.04 55.253 1067.89 52.847L1063.08 49.21L1060.68 47.392L1059.5 46.483C1059.07 46.162 1058.75 45.948 1058.38 45.627L1049.56 39.157L1047.37 37.553C1046.62 37.018 1045.88 36.537 1045.13 36.002L1040.64 32.9L1036.15 29.799L1035.03 29.05L1033.91 28.301L1031.66 26.858C1028.67 24.933 1025.63 22.954 1022.64 21.029L1013.5 15.521C1012.75 15.04 1012 14.612 1011.2 14.131L1008.9 12.847L1004.31 10.28C992.02 3.435 979.63 -2.76799 967.18 -8.062C954.67 -13.302 942.17 -17.741 929.72 -21.217C917.27 -24.692 904.93 -27.206 892.86 -28.65L890.61 -28.97C889.86 -29.077 889.12 -29.077 888.37 -29.184L883.88 -29.559C883.13 -29.612 882.38 -29.719 881.64 -29.773L879.45 -29.88L875.01 -30.093C874.64 -30.093 874.26 -30.147 873.89 -30.147H872.82H870.63L866.25 -30.2L861.97 -30.04L859.84 -29.986L858.77 -29.933L857.7 -29.826C846.43 -29.077 835.69 -27.259 825.7 -24.532C824.47 -24.158 823.24 -23.73 822.01 -23.356L820.19 -22.821C819.61 -22.607 819.02 -22.393 818.43 -22.179C817.25 -21.751 816.08 -21.324 814.9 -20.896C813.73 -20.468 812.61 -19.933 811.48 -19.505L809.77 -18.81C809.51 -18.703 809.19 -18.596 808.92 -18.436L808.12 -18.062C807.05 -17.527 805.93 -17.045 804.81 -16.511C803.74 -15.976 802.72 -15.388 801.65 -14.853L800.05 -14.051C799.52 -13.784 799.04 -13.463 798.55 -13.142C797.54 -12.554 796.58 -11.965 795.56 -11.377C794.601 -10.735 793.692 -10.094 792.731 -9.452C792.25 -9.131 791.769 -8.864 791.288 -8.543L789.952 -7.52699L788.617 -6.511L787.922 -6.03C787.708 -5.869 787.441 -5.709 787.281 -5.548C786.426 -4.853 785.571 -4.158 784.716 -3.463L784.075 -2.92799C783.862 -2.76799 783.701 -2.554 783.488 -2.39301L782.312 -1.32401C780.656 0.0670013 779.267 1.67101 777.717 3.11501C777.023 3.86301 776.328 4.66501 775.633 5.468C775.313 5.842 774.885 6.216 774.565 6.644L773.603 7.87399L772.641 9.05C772.321 9.425 771.947 9.79901 771.68 10.227C771.092 11.082 770.504 11.885 769.917 12.687C769.596 13.061 769.329 13.542 769.062 13.917L768.26 15.2L767.405 16.43C767.138 16.858 766.925 17.286 766.657 17.713L765.909 18.997L765.535 19.638L765.322 19.959L765.161 20.28C764.734 21.189 764.307 22.045 763.826 22.9C763.719 23.114 763.612 23.328 763.505 23.542L763.238 24.237L762.65 25.574L762.063 26.911C761.849 27.339 761.742 27.82 761.582 28.248C761.261 29.157 760.887 30.066 760.566 30.975C760.299 31.884 760.032 32.847 759.712 33.756L759.498 34.451C759.444 34.665 759.391 34.932 759.338 35.146L758.964 36.537L758.59 37.927L758.483 38.301L758.429 38.676L758.323 39.371C758.162 40.333 757.949 41.296 757.735 42.205C757.628 43.168 757.468 44.13 757.361 45.146C756.933 49.05 756.559 53.06 756.773 57.178V58.729C756.773 59.264 756.88 59.798 756.88 60.28C756.987 61.349 757.04 62.365 757.094 63.435C757.254 64.504 757.414 65.574 757.521 66.643C757.575 67.178 757.628 67.713 757.735 68.247L758.055 69.852C758.269 70.921 758.429 72.044 758.643 73.114C758.91 74.237 759.177 75.306 759.445 76.429C759.605 76.964 759.658 77.552 759.819 78.087L760.299 79.745C760.62 80.868 760.941 81.99 761.261 83.113C761.689 84.236 762.063 85.359 762.437 86.482L763.024 88.194L763.719 89.905C764.2 91.028 764.627 92.204 765.108 93.327C765.589 94.45 766.177 95.627 766.711 96.803L767.512 98.514C767.673 98.782 767.779 99.103 767.94 99.37L768.421 100.225C769.008 101.402 769.649 102.525 770.237 103.701C770.771 104.878 771.519 106.001 772.214 107.177C772.909 108.354 773.55 109.477 774.244 110.653C774.992 111.83 775.74 112.953 776.488 114.129L777.61 115.894C777.984 116.482 778.358 117.07 778.786 117.658L781.244 121.134L782.472 122.899C782.846 123.487 783.381 124.022 783.808 124.61L786.48 128.086L787.121 128.942L787.441 129.369L787.602 129.583C787.655 129.637 787.655 129.637 787.655 129.637C787.762 129.744 787.869 129.851 787.922 129.958C788.35 130.439 789.098 131.241 790.113 132.15C791.074 133.059 792.464 134.182 794.013 135.359L794.601 135.786L794.868 136L795.19 136.214L796.47 137.177L797.91 138.139C798.18 138.3 798.39 138.46 798.61 138.621L799.36 139.102C803.42 141.776 808.33 144.61 813.73 147.444C819.18 150.278 825.16 153.112 831.47 155.893L762.864 312.415Z" fill="#96F0B6"/>
<path d="M608.936 -49.024L763.399 23.649C764.948 20.601 766.444 17.553 768.474 14.665C766.818 13.328 765.322 11.938 763.933 10.494C762.544 9.05001 761.261 7.50001 760.246 6.00201C759.231 4.451 758.323 2.901 757.628 1.243C756.934 -0.360992 756.293 -2.07299 756.025 -3.72999C755.705 -5.38799 755.598 -7.09899 755.651 -8.80999C755.651 -9.66599 755.812 -10.522 755.972 -11.324C756.132 -12.179 756.346 -12.981 756.613 -13.837C756.72 -14.265 756.88 -14.693 757.041 -15.067C757.201 -15.495 757.361 -15.923 757.575 -16.297C757.949 -17.099 758.43 -17.848 758.911 -18.65C759.391 -19.452 759.926 -20.201 760.513 -20.949C761.155 -21.644 761.796 -22.34 762.49 -23.035L751.324 -35.334L749.881 -34.051C749.4 -33.623 748.919 -33.195 748.439 -32.714L745.714 -29.933L744.325 -28.543C743.844 -28.061 743.47 -27.58 743.042 -27.099L740.424 -24.211L739.783 -23.516C739.569 -23.302 739.356 -23.035 739.195 -22.767L737.966 -21.27L735.509 -18.275L733.265 -15.174L732.143 -13.623C731.982 -13.356 731.769 -13.088 731.555 -12.821L731.021 -12.019L627.689 -81.857C625.979 -79.237 624.216 -76.563 622.56 -73.943C621.705 -72.606 620.904 -71.269 620.102 -69.879L617.751 -65.761L615.4 -61.644C614.652 -60.253 613.958 -58.81 613.21 -57.419C611.767 -54.692 610.271 -51.911 608.936 -49.024Z" fill="#202F72"/>
<path d="M760.353 80.386C753.46 83.167 746.622 86.055 739.836 89.156C733.051 92.204 726.372 95.413 719.693 98.782C715.74 100.76 712.213 103.22 709.114 106.215C706.016 109.209 703.611 112.578 701.741 116.375C700.833 118.247 700.032 120.279 699.39 122.311C698.856 124.343 698.482 126.482 698.215 128.674C698.108 129.744 698.055 130.867 698.001 131.99C698.001 132.524 697.948 133.113 698.001 133.647C698.055 134.182 698.055 134.77 698.108 135.305C698.322 137.551 698.696 139.797 699.23 142.043C700.993 148.62 702.97 155.251 705.321 161.829C700.192 157.07 695.33 151.989 690.575 146.695C689.025 144.877 687.315 143.166 685.552 141.562C685.125 141.187 684.644 140.76 684.217 140.385C683.789 140.011 683.308 139.637 682.881 139.209C681.973 138.46 681.064 137.712 680.156 137.016C678.286 135.626 676.309 134.343 674.279 133.166C672.302 131.99 670.272 130.867 668.188 129.904C664.02 127.979 659.586 126.589 655.258 125.68C650.877 124.824 646.335 124.503 641.901 125.038C634.421 125.894 626.78 126.642 619.247 127.177C611.714 127.712 604.127 128.086 596.486 128.353C609.576 120.546 622.827 113.327 636.505 106.589C640.512 104.61 644.198 101.937 647.404 98.782C648.206 97.98 649.007 97.177 649.755 96.375C650.129 95.947 650.503 95.52 650.877 95.092C651.251 94.664 651.625 94.236 651.999 93.755C653.442 91.99 654.831 90.119 656.06 88.14C656.701 87.178 657.288 86.162 657.823 85.145C658.41 84.129 658.891 83.113 659.479 82.044C660.548 79.958 661.563 77.819 662.418 75.627C662.845 74.504 663.219 73.434 663.593 72.311C664.02 71.188 664.394 70.066 664.715 68.889C665.036 67.713 665.356 66.59 665.623 65.413C665.89 64.237 666.104 63.06 666.371 61.884C667.814 54.825 669.47 47.98 671.714 41.349C672.729 48.248 674.332 54.986 676.149 61.456C676.416 62.579 676.843 63.648 677.271 64.718C677.698 65.787 678.179 66.804 678.66 67.766C679.141 68.782 679.675 69.745 680.263 70.654C680.851 71.563 681.492 72.472 682.186 73.327C683.522 75.039 684.965 76.589 686.514 78.033C687.262 78.728 688.117 79.424 688.972 80.012C689.827 80.654 690.735 81.242 691.59 81.777C693.406 82.846 695.276 83.809 697.2 84.557C697.681 84.771 698.162 84.932 698.642 85.092C699.123 85.252 699.658 85.413 700.138 85.573C701.154 85.841 702.169 86.108 703.237 86.322C707.405 87.124 711.732 87.284 716.114 86.857C730.913 85.359 745.767 83.167 760.353 80.386Z" fill="#202F72"/>
<path d="M694.85 170.759C690.415 175.091 686.034 179.476 681.706 183.861C679.142 186.481 677.592 189.957 677.218 193.861C677.004 195.786 677.111 197.871 677.432 199.957C677.592 201.026 677.913 202.042 678.233 203.058C678.607 204.074 679.035 205.09 679.516 206.106L681.706 210.598L682.828 212.844L683.095 213.432L683.256 213.7C683.309 213.807 683.362 213.86 683.416 214.021L684.217 215.357L676.31 208.566C675.455 207.818 674.547 207.122 673.638 206.534C672.73 205.892 671.768 205.358 670.86 204.823C668.99 203.753 667.067 203.005 665.09 202.47C661.189 201.454 657.289 201.507 653.816 202.898C647.993 205.251 642.222 207.443 636.398 209.582C640.673 204.983 645 200.491 649.328 196.053C651.893 193.433 653.496 189.796 653.977 185.839C654.03 185.358 654.083 184.823 654.137 184.342C654.19 183.807 654.19 183.272 654.244 182.791C654.244 181.722 654.244 180.652 654.137 179.583C653.923 177.39 653.442 175.198 652.694 172.952L651.839 170.492L651.091 167.979L649.649 163.005L652.908 167.069L654.511 169.048L656.221 170.973C657.77 172.738 659.426 174.182 661.189 175.412C662.044 176 662.953 176.535 663.861 177.016C664.342 177.23 664.769 177.444 665.25 177.658C665.731 177.818 666.212 177.978 666.693 178.139C670.486 179.262 674.333 179.208 677.752 177.871C683.469 175.519 689.186 173.166 694.85 170.759Z" fill="#202F72"/>
<path d="M785.357 127.017C780.869 131.509 776.381 136.107 771.946 140.76C771.305 141.455 770.664 142.15 770.13 142.899C769.862 143.273 769.595 143.647 769.328 144.022C769.275 144.129 769.221 144.236 769.168 144.289L768.954 144.556C768.794 144.717 768.687 144.877 768.527 145.038C767.458 146.321 766.603 147.658 765.909 148.995C764.68 151.669 764.413 154.342 765.481 156.642C766.229 158.3 767.138 160.064 768.099 161.775C766.229 161.08 764.306 160.385 762.543 159.636C760.085 158.674 757.36 158.567 754.261 159.155C752.765 159.422 751.162 159.904 749.506 160.545C749.079 160.706 748.705 160.92 748.277 161.027C747.85 161.187 747.422 161.348 746.995 161.508C746.14 161.829 745.285 162.257 744.484 162.738C738.927 165.893 733.317 168.995 727.707 172.096C732.035 167.337 736.416 162.631 740.851 158.032C742.186 156.642 743.255 155.144 744.11 153.54C744.537 152.738 744.911 151.936 745.232 151.08C745.552 150.278 745.819 149.423 746.087 148.567C746.995 145.145 746.941 141.669 745.873 138.514L743.843 131.455L749.346 136.161C751.964 138.193 755.223 139.316 758.536 139.423C759.39 139.423 760.192 139.423 761.1 139.316C761.955 139.209 762.863 139.048 763.718 138.781C765.481 138.3 767.191 137.605 768.847 136.696C774.404 133.487 779.907 130.279 785.357 127.017Z" fill="#202F72"/>
<path d="M792.464 435.782C814.21 466.744 833.55 498.99 850.86 532.198C868.12 565.406 883.29 599.576 896.28 634.656C897.93 639.041 899.48 643.426 901.03 647.864C901.83 650.057 902.63 652.249 903.38 654.495L905.63 661.126L907.87 667.757L910.01 674.442L912.14 681.126L912.41 681.982L912.52 682.409L912.63 682.677L913 683.746L913.75 685.885C917.54 697.489 922.08 708.238 927.43 717.863C932.71 727.542 938.75 736.152 945.43 743.638C952.06 751.178 959.43 757.435 967.34 762.783L968.83 763.798C969.1 763.959 969.31 764.173 969.58 764.28L970.33 764.708C971.34 765.296 972.36 765.938 973.37 766.526C974.39 767.221 975.46 767.702 976.53 768.237C977.6 768.772 978.61 769.36 979.68 769.948C980.8 770.429 981.87 770.964 982.94 771.445L984.54 772.248C985.08 772.461 985.66 772.675 986.25 772.943C987.37 773.371 988.49 773.852 989.62 774.333L990.04 774.494L990.47 774.654L991.33 774.921L993.04 775.51L994.75 776.151C995.01 776.258 995.33 776.365 995.6 776.472L996.51 776.74C997.68 777.06 998.86 777.435 1000.09 777.809C1001.26 778.237 1002.49 778.451 1003.72 778.718C1004.95 778.985 1006.13 779.36 1007.36 779.627C1008.58 779.841 1009.87 780.108 1011.1 780.322L1012.97 780.697L1014.89 780.964C1016.17 781.124 1017.45 781.338 1018.68 781.552C1019.96 781.713 1021.3 781.766 1022.58 781.927C1025.15 782.247 1027.82 782.301 1030.44 782.461L1031.4 782.515C1031.72 782.515 1032.04 782.515 1032.41 782.515H1034.44C1035.78 782.515 1037.12 782.568 1038.45 782.568C1039.79 782.515 1041.18 782.461 1042.51 782.408L1044.54 782.354L1046.57 782.194L1050.69 781.873L1051.22 781.82L1051.75 781.766L1052.77 781.659L1054.8 781.392C1060.3 780.804 1065.81 779.681 1071.31 778.558L1075.42 777.542C1076.81 777.167 1078.2 776.9 1079.54 776.472C1082.26 775.617 1085.04 774.921 1087.71 773.959L1091.83 772.622L1095.89 771.071C1098.61 770.109 1101.23 768.879 1103.9 767.756C1105.24 767.221 1106.52 766.579 1107.85 765.938L1111.81 764.066L1115.66 762.034L1117.58 761.018C1117.9 760.857 1118.22 760.697 1118.54 760.537L1119.5 760.002C1129.71 754.28 1139.43 747.649 1148.46 740.216C1149.64 739.36 1150.7 738.291 1151.77 737.382L1155.09 734.494L1158.29 731.5L1159.89 730.002L1160.7 729.254C1160.96 728.986 1161.23 728.719 1161.44 728.451C1165.56 724.28 1169.57 720.056 1173.25 715.51C1180.73 706.58 1187.36 696.955 1193.07 686.794L1341.82 770.429C1330.97 789.787 1318.26 808.13 1304.05 825.13C1296.99 833.69 1289.41 841.77 1281.61 849.63C1281.12 850.11 1280.64 850.64 1280.16 851.12L1278.67 852.57L1275.68 855.4C1273.64 857.33 1271.67 859.2 1269.64 861.07L1263.39 866.52C1261.3 868.34 1259.22 870.21 1257.08 871.87C1240.04 885.94 1221.71 898.45 1202.37 909.25L1200.55 910.27C1199.97 910.59 1199.33 910.91 1198.74 911.23L1195.05 913.15C1192.59 914.44 1190.14 915.72 1187.68 917L1180.14 920.59C1177.63 921.76 1175.12 922.99 1172.56 924.06C1167.43 926.26 1162.35 928.5 1157.12 930.43L1149.32 933.37L1141.41 936.04C1136.12 937.86 1130.72 939.41 1125.38 940.96C1122.71 941.76 1119.98 942.41 1117.26 943.1C1114.53 943.8 1111.81 944.49 1109.08 945.13C1098.08 947.54 1086.96 949.62 1075.64 950.96L1071.42 951.5L1069.28 951.76L1068.21 951.87L1067.14 951.98L1058.59 952.67L1054.32 952.99L1049.99 953.15L1041.39 953.47C1038.5 953.53 1035.62 953.47 1032.73 953.47L1028.41 953.42C1027.66 953.42 1026.96 953.42 1026.22 953.37L1024.02 953.26C1018.2 952.94 1012.43 952.73 1006.61 952.08C1003.67 951.82 1000.78 951.55 997.9 951.18L989.14 949.95L984.75 949.3L980.37 948.5L971.66 946.79C968.78 946.15 965.89 945.45 962.96 944.76C960.07 944.01 957.19 943.37 954.3 942.51L945.7 940L943.56 939.36C942.87 939.14 942.12 938.88 941.42 938.66L937.15 937.16L932.88 935.67L930.74 934.92L929.67 934.54L928.6 934.12L920.21 930.69C918.82 930.11 917.43 929.57 916.05 928.93L911.93 927L903.7 923.15C900.98 921.82 898.31 920.37 895.64 918.93C892.96 917.49 890.29 916.1 887.67 914.49C885.06 912.94 882.44 911.39 879.87 909.79L877.95 908.61C877.31 908.23 876.67 907.75 876.03 907.38L872.23 904.87C852.09 891.34 833.66 875.29 817.9 857.43C802.08 839.63 788.724 820.27 777.771 800.27C766.818 780.269 758.163 759.681 751.484 739.093L750.202 735.243L749.08 731.82L747.37 726.419L745.66 721.018L743.844 715.617L742.027 710.216C741.439 708.398 740.745 706.634 740.157 704.869C738.875 701.286 737.646 697.703 736.31 694.174C731.021 679.95 725.357 665.886 719.213 652.035C713.069 638.185 706.497 624.549 699.498 611.127C685.553 584.282 670.005 558.401 652.801 533.962L792.464 435.782Z" fill="#96F0B6"/>
<path d="M729.738 677.008C736.15 673.158 742.561 669.308 748.973 665.404C755.331 661.5 761.689 657.597 768.047 653.586C771.84 651.233 775.153 648.346 777.931 645.084C780.709 641.768 783.06 638.078 784.77 634.068C786.48 630.057 787.548 625.779 788.029 621.287C788.457 616.849 788.243 612.196 787.388 607.598C787.068 605.886 786.694 604.175 786.373 602.517L785.304 597.437L784.236 592.304C783.862 590.592 783.488 588.935 783.114 587.224C784.236 588.56 785.358 589.897 786.48 591.234L789.792 595.298L793.105 599.362C794.227 600.699 795.3 602.09 796.36 603.48C799.3 607.223 802.67 610.485 806.3 613.212C809.94 615.993 813.89 618.186 818 619.843C822.17 621.501 826.44 622.624 830.83 623.052C835.21 623.48 839.64 623.319 844.02 622.41C851.4 620.859 858.77 619.362 866.14 617.918C873.52 616.474 880.89 615.031 888.26 613.64C875.6 621.822 862.94 629.897 850.17 637.811C842.63 642.517 836.76 649.522 833.12 657.597C832.22 659.629 831.41 661.714 830.77 663.853C830.08 665.992 829.6 668.238 829.17 670.484C828.42 674.976 828.26 679.629 828.69 684.388C829.01 687.864 829.33 691.34 829.6 694.869L830.35 705.297L824.95 696.366C823.13 693.425 821.26 690.484 819.39 687.543C816.93 683.532 813.84 680.056 810.42 677.169C808.71 675.725 806.94 674.388 805.07 673.212C803.2 672.035 801.23 671.019 799.25 670.163C791.235 666.688 782.419 665.725 773.657 667.543C758.91 670.591 744.271 673.746 729.738 677.008Z" fill="#202F72"/>
<path d="M697.627 607.491C702.756 603.64 707.885 599.737 712.961 595.887C716.006 593.587 718.197 590.486 719.372 587.063C719.96 585.352 720.334 583.534 720.388 581.662C720.494 579.791 720.281 577.919 719.8 576.101L717.609 567.973L723.487 574.069C724.822 575.459 726.318 576.636 727.868 577.545C729.471 578.507 731.18 579.202 732.943 579.684C736.523 580.593 740.317 580.539 743.95 579.309C750.041 577.277 756.132 575.299 762.276 573.32C757.2 577.277 752.071 581.181 746.995 585.085C743.95 587.384 741.759 590.539 740.53 593.961C739.889 595.673 739.569 597.491 739.408 599.362C739.248 601.234 739.408 603.106 739.782 604.977C740.37 607.758 740.958 610.485 741.545 613.266C739.729 611.127 737.859 608.988 736.042 606.849C734.813 605.405 733.371 604.175 731.821 603.213C730.272 602.25 728.562 601.502 726.799 601.02C723.273 600.058 719.479 600.165 715.846 601.341C709.755 603.373 703.718 605.405 697.627 607.491Z" fill="#202F72"/>
<path d="M-0.687973 453.001C-1.54197 438.777 -0.954976 424.552 0.969024 410.702C2.89202 396.799 6.20503 383.269 10.586 370.328C19.402 344.393 32.706 320.917 48.788 300.597C64.87 280.223 83.784 263.004 104.193 248.886C114.398 241.828 124.977 235.571 135.823 230.01C138.548 228.673 141.273 227.336 143.998 225.999L150.783 222.951L157.569 219.903L160.988 218.406L164.461 216.962L178.299 211.293L192.405 206.053C193.58 205.625 194.755 205.144 195.931 204.769L199.511 203.539L206.67 201.133L210.25 199.957L212.066 199.368L213.883 198.834L221.203 196.641C240.651 190.919 260.687 186.267 281.043 182.898C321.809 176.267 364.125 175.091 405.693 180.01C426.477 182.417 447.047 186.374 467.189 191.615C487.332 196.909 506.941 203.539 525.961 211.293C564.003 226.855 599.319 247.068 631.644 270.169C663.968 293.271 693.354 319.26 720.015 347.174C746.676 375.034 770.719 404.766 792.465 435.729L652.802 533.855C635.651 509.417 616.951 486.423 596.862 465.407C576.772 444.392 555.187 425.408 532.48 409.205C509.772 392.948 485.89 379.473 461.312 369.419C436.735 359.313 411.463 352.682 385.871 349.687C360.278 346.692 334.365 347.334 308.345 351.505C295.362 353.644 282.325 356.639 269.396 360.489L264.534 361.933L263.305 362.307L262.076 362.735L259.672 363.537L254.81 365.141L252.405 365.943C251.604 366.211 250.802 366.532 250.001 366.853L240.33 370.435L230.713 374.393L228.309 375.355L225.904 376.425L221.096 378.564L216.287 380.703C215.165 381.237 214.15 381.772 213.028 382.307C208.807 384.446 204.8 386.852 201.113 389.419C193.687 394.553 187.436 400.435 182.52 406.638C177.605 412.841 174.132 419.312 172.048 425.408C170.98 428.456 170.285 431.451 169.858 434.338C169.484 437.226 169.377 439.953 169.537 442.68L-0.687973 453.001Z" fill="#96F0B6"/>
<path d="M694.53 321.987L679.731 337.815C692.66 349.954 705.002 362.521 716.81 375.515C728.618 388.51 739.838 401.879 750.577 415.622C745.341 417.921 739.464 418.937 733.427 418.777C727.336 418.67 721.085 417.386 715.154 415.087L704.628 411.076L699.392 409.098L694.103 407.226C690.577 405.996 687.104 404.766 683.577 403.59L672.999 400.221C671.503 399.74 670.007 399.312 668.511 398.938C667.014 398.563 665.518 398.242 664.076 397.975C661.137 397.387 658.252 396.959 655.42 396.745C652.589 396.478 649.81 396.424 647.086 396.585C644.361 396.692 641.743 397.012 639.125 397.494C633.995 398.456 629.187 400.114 624.645 402.627C620.157 405.087 615.99 408.296 612.25 412.306C607.388 417.493 603.648 423.322 601.19 429.418C598.679 435.568 597.29 442.092 597.236 448.616C597.236 449.418 597.236 450.22 597.29 451.076C597.29 451.878 597.343 452.734 597.397 453.536C597.503 455.193 597.717 456.851 598.038 458.455C598.625 461.771 599.587 464.926 600.763 468.241C601.404 469.899 602.098 471.503 602.9 473.108C603.701 474.712 604.61 476.263 605.571 477.92C606.533 479.525 607.602 481.129 608.777 482.68C609.365 483.482 609.952 484.23 610.594 485.033C611.235 485.781 611.876 486.583 612.57 487.385C613.96 489.043 615.402 490.541 616.845 491.931C618.287 493.375 619.837 494.658 621.333 495.888C624.325 498.401 627.477 500.487 630.683 502.198C633.889 503.963 637.148 505.353 640.514 506.423C641.369 506.69 642.223 506.904 643.025 507.118C643.88 507.332 644.735 507.546 645.536 507.759C647.246 508.134 648.956 508.401 650.665 508.615C654.085 508.989 657.558 509.043 661.03 508.776C664.503 508.508 667.869 507.973 671.289 507.064C678.074 505.246 684.646 502.198 690.63 497.867C693.195 496.048 696.774 492.84 698.644 490.861C696.507 487.653 694.423 484.391 692.179 481.236L688.867 476.477C687.745 474.872 686.676 473.268 685.554 471.717C683.524 474.231 681.227 476.316 679.143 477.974C670.381 484.712 660.87 487.546 652.001 486.69C649.81 486.476 647.566 486.049 645.429 485.407C643.292 484.765 641.155 483.856 639.125 482.733C638.109 482.198 637.094 481.557 636.133 480.861C635.117 480.22 634.156 479.471 633.194 478.722C631.271 477.172 629.454 475.354 627.691 473.321C624.485 469.685 622.241 465.835 620.852 461.878C619.409 457.974 618.822 453.963 619.035 450.006C619.249 445.996 620.211 442.145 621.867 438.509C623.577 434.819 625.981 431.397 629.08 428.349C634.53 423.055 640.674 420.06 648.047 419.151C651.68 418.723 655.634 418.83 659.908 419.365C662.046 419.632 664.29 420.06 666.587 420.595C668.885 421.13 671.235 421.825 673.693 422.574C676.739 423.59 679.837 424.552 682.883 425.622L692.019 428.83L696.614 430.488L701.156 432.199L710.345 435.728C714.299 437.333 718.039 438.723 721.779 439.739C725.519 440.809 729.152 441.611 732.679 442.199C739.731 443.375 746.463 443.482 752.875 442.787C765.644 441.397 777.292 436.531 787.71 429.418C760.515 391.13 729.687 354.928 694.53 321.987Z" fill="#202F72"/>
<path d="M623.31 372.414C629.882 364.981 636.133 356.478 641.049 347.281C645.911 338.083 649.384 328.19 650.399 317.762C650.506 316.479 650.612 315.142 650.666 313.859C650.719 312.575 650.666 311.238 650.612 309.955C650.506 307.335 650.238 304.661 649.758 302.041C649.277 299.42 648.636 296.693 647.727 294.019C646.819 291.346 645.697 288.725 644.361 286.052C643.026 283.378 641.476 280.758 639.66 278.084C637.79 275.464 635.706 272.897 633.408 270.33C632.233 269.047 631.004 267.763 629.722 266.533C628.386 265.303 626.997 264.073 625.554 262.843C624.112 261.614 622.562 260.437 621.013 259.207C619.41 258.031 617.807 256.801 616.044 255.678C612.518 253.378 609.045 251.4 605.679 249.635C603.969 248.726 602.259 247.977 600.55 247.282C598.84 246.587 597.184 245.892 595.527 245.304C588.956 242.897 582.491 241.721 576.507 241.24C575.011 241.133 573.515 241.079 572.072 241.079C570.576 241.079 569.133 241.186 567.691 241.293C564.806 241.507 562.081 241.935 559.409 242.576C554.12 243.753 549.098 245.731 544.503 248.245C539.908 250.758 535.687 253.806 531.84 257.282C527.993 260.758 524.467 264.662 521.261 268.779C514.85 277.068 509.774 286.319 505.713 295.41C501.599 304.661 498.073 314.714 495.776 324.821C494.6 329.901 493.745 334.981 493.157 340.008C492.57 345.088 492.356 350.061 492.516 354.928C492.677 359.794 493.264 364.393 494.28 368.992C494.814 371.238 495.402 373.484 496.203 375.623C496.577 376.692 497.004 377.761 497.432 378.777C497.859 379.847 498.34 380.863 498.874 381.933C500.905 386.05 503.523 389.793 506.782 393.483C507.583 394.392 508.438 395.248 509.346 396.103C510.255 396.959 511.217 397.761 512.178 398.67C514.155 400.381 516.292 401.986 518.697 403.537C519.872 404.285 521.047 405.087 522.223 405.729C523.398 406.424 524.574 407.066 525.749 407.654C526.925 408.242 528.1 408.777 529.275 409.258C530.451 409.793 531.573 410.221 532.748 410.649C535.099 411.451 537.397 412.093 539.748 412.574C542.045 413.055 544.396 413.429 546.693 413.536C548.991 413.697 551.342 413.697 553.692 413.536C555.99 413.429 558.341 413.162 560.638 412.734C562.936 412.306 565.287 411.772 567.584 411.13C568.759 410.809 569.881 410.435 571.057 410.06C572.179 409.686 573.354 409.258 574.476 408.831C583.559 405.355 592.482 400.007 600.763 393.697C608.938 387.334 616.632 380.007 623.31 372.414ZM528.1 306.265C532.054 298.672 536.542 291.453 541.618 285.143C544.182 281.988 546.854 279.1 549.739 276.533C552.624 273.966 555.669 271.667 558.822 269.849C562.027 268.031 565.34 266.64 568.866 265.678C570.629 265.196 572.446 264.876 574.316 264.662C575.224 264.555 576.186 264.448 577.148 264.448C578.109 264.448 579.018 264.448 579.979 264.501C583.826 264.662 587.78 265.41 591.948 266.801C596.008 268.244 600.229 270.33 604.557 273.111C605.625 273.806 606.64 274.555 607.602 275.25C608.564 275.998 609.526 276.747 610.38 277.496C612.144 278.993 613.746 280.597 615.242 282.148C615.99 282.95 616.685 283.752 617.273 284.554C617.914 285.356 618.502 286.212 619.036 287.068C620.158 288.725 621.12 290.437 621.921 292.148C625.234 298.993 626.035 306.265 625.18 313.538C624.753 317.174 623.898 320.81 622.669 324.447C621.44 328.083 619.837 331.719 617.967 335.302C614.227 342.468 609.365 349.473 604.076 356.158C598.68 362.895 592.909 369.152 586.925 374.553C583.933 377.227 580.888 379.687 577.789 381.826C574.69 384.018 571.538 385.89 568.385 387.441C562.081 390.542 555.776 392.146 549.418 392.093C547.815 392.039 546.266 391.932 544.663 391.665C543.06 391.398 541.511 390.97 539.908 390.489C538.305 390.007 536.702 389.366 535.099 388.563C534.298 388.189 533.496 387.761 532.695 387.28C531.893 386.799 531.092 386.318 530.291 385.783C527.085 383.697 524.413 381.398 522.276 378.831C520.086 376.371 518.376 373.697 517.147 370.756C516.826 370.008 516.559 369.312 516.292 368.564C516.025 367.815 515.758 367.066 515.544 366.318C515.117 364.821 514.743 363.216 514.476 361.612C513.941 358.403 513.834 354.981 513.995 351.505C514.155 347.976 514.636 344.393 515.384 340.703C516.132 337.013 517.147 333.217 518.376 329.367C520.78 321.666 524.146 313.859 528.1 306.265Z" fill="#202F72"/>
<path d="M370.911 177.337L370.11 198.994C388.864 199.689 407.564 201.668 425.997 204.823C444.483 207.978 462.649 212.416 480.441 217.924C477.342 222.791 472.907 226.908 467.725 230.224C466.442 231.026 465.053 231.828 463.664 232.523C462.275 233.272 460.832 233.967 459.336 234.609C456.398 235.892 453.299 236.908 450.093 237.71C449.131 237.924 448.223 238.138 447.262 238.405L444.43 239.154L438.82 240.651L433.316 242.202C431.5 242.737 429.63 243.325 427.813 243.913C424.18 245.09 420.6 246.213 417.021 247.443C413.441 248.726 409.915 250.009 406.442 251.346C404.946 251.935 403.503 252.469 402.114 253.164C400.725 253.806 399.336 254.501 398 255.196C395.328 256.587 392.817 258.138 390.466 259.742C388.116 261.293 385.925 263.111 383.948 264.982C381.971 266.854 380.155 268.779 378.498 270.811C376.842 272.843 375.399 274.929 374.171 277.175C372.888 279.421 371.82 281.72 370.965 284.18C369.202 288.993 368.24 294.126 367.973 299.634C367.652 306.747 368.614 313.591 370.537 319.848C371.499 322.949 372.728 326.051 374.117 328.885C375.56 331.773 377.216 334.447 379.033 336.96C380.903 339.42 382.933 341.826 385.177 343.965C386.299 345.035 387.474 346.051 388.703 346.96C389.291 347.441 389.932 347.869 390.573 348.35C391.214 348.831 391.856 349.259 392.497 349.687C393.833 350.543 395.168 351.345 396.611 352.093C398.053 352.842 399.496 353.43 401.045 354.125C402.595 354.767 404.144 355.355 405.801 355.837C406.602 356.104 407.457 356.318 408.312 356.478C409.167 356.692 410.021 356.906 410.93 357.12C412.746 357.548 414.563 357.869 416.326 358.029C417.234 358.136 418.089 358.19 418.998 358.243C419.852 358.35 420.761 358.404 421.616 358.404C423.325 358.457 425.035 358.457 426.745 358.297C427.6 358.243 428.401 358.136 429.256 358.029C430.057 357.976 430.912 357.869 431.714 357.708C433.316 357.441 434.973 357.12 436.522 356.692C437.324 356.478 438.125 356.265 438.873 355.997C439.675 355.73 440.423 355.462 441.171 355.195C444.216 354.125 447.208 352.735 450.093 351.024C452.978 349.313 455.703 347.441 458.268 345.302C460.886 343.163 463.29 340.757 465.588 338.083C467.885 335.463 469.969 332.575 471.839 329.527C473.709 326.479 475.312 323.217 476.701 319.741C477.876 316.853 479.159 312.148 479.693 309.527L469.274 305.142C465.801 303.752 462.275 302.415 458.749 301.078C458.482 304.287 457.734 307.335 456.932 309.848C455.222 315.142 452.818 319.634 449.986 323.431C447.101 327.281 443.789 330.383 440.102 332.629C438.285 333.751 436.362 334.661 434.385 335.409C432.408 336.211 430.324 336.746 428.187 337.067C427.119 337.227 426.05 337.334 424.928 337.388C424.394 337.441 423.86 337.388 423.272 337.441C422.738 337.441 422.15 337.441 421.562 337.441C419.318 337.388 416.967 337.12 414.616 336.586C414.082 336.479 413.548 336.318 413.013 336.158C412.479 336.051 411.998 335.89 411.464 335.73C410.449 335.409 409.487 335.088 408.525 334.714C406.655 333.912 404.946 332.949 403.343 331.826C400.137 329.687 397.466 326.96 395.328 323.752C394.794 322.949 394.313 322.094 393.833 321.238C393.352 320.383 392.924 319.527 392.55 318.618C391.802 316.853 391.161 314.982 390.68 313.003C389.772 309.099 389.451 304.928 389.932 300.597C390.787 293.057 393.565 286.854 398.641 281.453C401.152 278.833 404.251 276.426 407.938 274.234C409.754 273.111 411.785 272.041 413.922 271.025C416.059 270.063 418.303 269.153 420.761 268.244L425.302 266.64C426.05 266.373 426.852 266.105 427.6 265.838L429.897 265.089C432.996 264.127 436.095 263.164 439.247 262.202L441.598 261.507L443.949 260.865L448.704 259.581L453.513 258.298C455.116 257.87 456.772 257.442 458.375 257.122C462.596 256.213 466.549 255.143 470.343 253.913C472.213 253.271 474.029 252.683 475.793 252.041C477.556 251.4 479.265 250.705 480.975 249.956C484.288 248.512 487.494 246.801 490.432 245.09C493.371 243.378 496.096 241.507 498.66 239.475C503.789 235.411 508.224 230.812 511.964 225.785C515.704 220.758 518.803 215.304 521.261 209.475L519.07 208.566L516.826 207.711L512.338 206.053L507.85 204.395C506.354 203.86 504.858 203.272 503.362 202.737L494.279 199.689L489.738 198.192L485.143 196.802L475.899 194.021C474.35 193.54 472.801 193.165 471.251 192.738L466.603 191.508L461.901 190.278L459.55 189.689C458.749 189.476 458.001 189.315 457.199 189.155L447.742 187.016C422.684 181.508 396.771 178.353 370.911 177.337Z" fill="#202F72"/>
<path d="M278.693 183.326L306.85 351.772C307.545 351.612 308.293 351.505 308.988 351.452L311.125 351.131L315.399 350.489L317.536 350.168L318.605 350.008L319.673 349.901L323.948 349.473C324.215 345.195 325.176 341.184 326.779 337.441C327.153 336.532 327.634 335.623 328.115 334.714C328.596 333.858 329.13 333.003 329.665 332.201C330.787 330.596 332.069 329.046 333.458 327.655C334.901 326.265 336.45 324.981 338.213 323.805C339.923 322.736 341.793 321.773 343.823 320.971C345.8 320.169 347.937 319.474 350.181 319.046C352.425 318.671 354.776 318.404 357.234 318.351L357.394 301.72C345.373 301.506 333.351 302.201 321.383 303.378L308.881 179.208L301.347 180.01L297.554 180.438C296.325 180.599 295.043 180.812 293.814 180.973L286.334 182.042L282.594 182.577C281.205 182.898 279.922 183.058 278.693 183.326Z" fill="#202F72"/>
<path d="M215.593 381.077C211.746 374.714 207.792 368.457 203.678 362.254C201.648 359.152 199.511 356.051 197.427 353.003C195.343 349.955 193.153 346.907 191.016 343.858C188.451 340.276 185.405 337.121 182.039 334.554C178.673 332.04 174.933 330.115 170.873 328.832C166.919 327.655 162.591 327.067 158.264 327.388C157.195 327.442 156.073 327.549 155.004 327.709C153.936 327.923 152.867 328.137 151.745 328.404C150.677 328.671 149.555 328.992 148.486 329.367C147.418 329.741 146.402 330.222 145.334 330.704C143.784 331.399 142.235 332.147 140.739 332.896C139.243 333.698 137.693 334.447 136.144 335.249L131.656 337.762C130.908 338.19 130.16 338.618 129.412 339.099L127.168 340.489L128.504 338.244C128.985 337.495 129.412 336.746 129.893 335.998L132.831 331.613C133.847 330.169 134.862 328.725 135.93 327.281C136.945 325.837 138.067 324.447 139.189 323.003C145.174 315.356 149.501 306.854 152.012 297.923C153.295 293.538 154.043 288.939 154.203 284.448C154.363 279.956 153.936 275.464 152.707 271.132C151.692 267.496 150.73 263.806 149.768 260.116C148.807 256.427 147.898 252.79 147.044 249.1C145.28 241.721 143.678 234.288 142.235 226.801L145.868 231.186L146.776 232.309C147.097 232.684 147.364 233.058 147.631 233.432L149.341 235.732L156.073 244.876C160.508 250.972 164.942 257.122 169.27 263.271C171.835 266.908 174.987 270.116 178.513 272.736C182.039 275.41 185.886 277.496 190.107 279.207C194.275 280.865 198.709 282.041 203.251 282.576C204.373 282.736 205.495 282.79 206.67 282.897C207.846 283.004 209.021 283.057 210.196 283.057C212.547 283.111 214.898 282.95 217.249 282.683L222.485 282.041L227.721 281.56C231.194 281.239 234.667 280.918 238.14 280.651C235.148 282.469 232.209 284.341 229.271 286.159L224.889 288.939L220.562 291.827C218.638 293.164 216.822 294.554 215.112 296.105C214.257 296.854 213.456 297.656 212.708 298.458C211.96 299.26 211.212 300.169 210.517 301.025C207.792 304.554 205.602 308.404 204.106 312.415C202.556 316.372 201.755 320.757 201.541 325.035C201.381 329.367 201.862 333.698 202.984 338.03C204.907 345.249 206.937 352.468 208.968 359.634L212.066 370.382L212.868 373.056C213.028 373.484 213.135 373.965 213.295 374.393L213.776 375.73L215.593 381.077Z" fill="#202F72"/>
<path d="M116.216 332.147C111.033 328.778 105.797 325.516 100.454 322.361C98.851 321.399 97.142 320.811 95.272 320.49C93.402 320.169 91.425 320.169 89.394 320.543C87.364 320.917 85.334 321.559 83.303 322.575C81.273 323.591 79.35 324.982 77.426 326.586C76.732 327.174 76.037 327.816 75.396 328.404L73.366 330.329C72.03 331.612 70.694 332.896 69.358 334.179C70.106 332.468 70.908 330.81 71.709 329.153L72.938 326.639C73.366 325.784 73.793 324.982 74.22 324.179C75.396 321.933 76.251 319.634 76.945 317.388C77.64 315.142 78.014 312.95 78.174 310.811C78.281 308.672 78.228 306.64 77.8 304.715C77.373 302.789 76.678 301.025 75.663 299.474C72.297 294.18 68.931 288.832 65.672 283.485C71.175 286.533 76.625 289.688 81.968 292.896C85.173 294.822 89.074 295.41 93.348 295.035C95.485 294.822 97.622 294.34 99.813 293.592C102.004 292.897 104.194 291.934 106.385 290.651L107.56 289.955L108.789 289.314L111.193 288.03C112.796 287.175 114.399 286.319 116.002 285.517C114.773 286.854 113.651 288.244 112.476 289.581L110.713 291.613L109.858 292.629L109.003 293.699C107.453 295.624 106.224 297.602 105.316 299.634C104.408 301.666 103.82 303.752 103.553 305.784C103.019 309.795 103.82 313.645 105.85 316.746C109.216 321.987 112.636 327.121 116.216 332.147Z" fill="#202F72"/>
<path d="M181.292 408.243C175.95 404.874 170.5 401.612 164.943 398.457C163.287 397.494 161.631 396.799 159.974 396.264C158.318 395.729 156.715 395.462 155.112 395.408C151.907 395.302 149.021 396.211 146.884 397.975L144.587 400.007C144.159 400.328 143.839 400.703 143.465 401.023L142.343 402.093L142.503 400.542C142.557 400.007 142.61 399.526 142.717 398.991L143.251 395.89C143.785 393.056 143.358 389.954 142.236 386.852C141.648 385.302 140.847 383.751 139.885 382.254C138.923 380.756 137.748 379.312 136.359 378.029C131.764 373.591 127.222 369.099 122.734 364.446C128.398 367.387 134.061 370.489 139.618 373.644C141.274 374.607 142.984 375.302 144.694 375.836C145.549 376.104 146.403 376.264 147.258 376.425C148.113 376.585 148.968 376.692 149.823 376.746C151.479 376.853 153.135 376.746 154.631 376.478C156.181 376.211 157.623 375.73 158.906 374.981L159.6 374.607L160.348 374.232L161.844 373.484C162.859 373.002 163.768 372.468 164.783 372.04C164.249 373.002 163.821 374.018 163.34 374.981L162.646 376.425L162.272 377.12L161.951 377.869C161.363 379.205 161.043 380.649 160.989 382.093C160.989 383.59 161.203 385.141 161.684 386.639C161.898 387.387 162.218 388.136 162.592 388.884C162.966 389.633 163.394 390.382 163.875 391.13C164.836 392.574 166.012 393.965 167.348 395.301C171.889 399.74 176.537 404.018 181.292 408.243Z" fill="#202F72"/>
<path d="M509.504 866.79C513.244 861.93 516.93 855.19 519.602 847.06C519.976 846.04 520.243 845.03 520.564 843.96C520.724 843.42 520.831 842.89 520.991 842.35L521.419 840.75C521.953 838.56 522.487 836.42 522.861 834.12C523.289 831.87 523.609 829.63 523.876 827.33L524.037 825.62L524.143 824.76L524.197 823.9L524.304 822.19L524.357 820.48C524.571 815.94 524.411 811.55 524.037 807.59L523.876 806.15L523.823 805.46L523.716 804.76L523.502 803.42C523.395 803 523.342 802.57 523.289 802.14C523.235 801.71 523.128 801.34 523.021 800.96C522.915 800.54 522.915 800.32 522.701 799.47L521.632 795.188C520.19 789.734 518.694 784.921 517.144 780.857C515.541 776.953 513.992 773.745 512.336 770.964C511.908 770.322 511.481 769.627 511.107 768.932C510.626 768.344 510.198 767.702 509.771 767.061C509.664 766.9 509.557 766.74 509.45 766.579L509.076 766.151C508.809 765.831 508.596 765.563 508.328 765.242C508.115 764.922 507.848 764.654 507.634 764.333C507.367 764.066 507.046 763.745 506.779 763.478C506.512 763.157 506.245 762.889 505.978 762.569L505.604 762.087C505.497 761.927 505.283 761.766 505.123 761.659C504.482 761.071 503.84 760.43 503.253 759.841C502.986 759.521 502.558 759.2 502.184 758.932C501.81 758.611 501.436 758.291 501.116 757.97C500.795 757.649 500.421 757.328 500.047 757.007C499.673 756.686 499.192 756.365 498.818 756.045C497.963 755.403 497.162 754.761 496.36 754.066C495.399 753.424 494.437 752.783 493.529 752.087L492.139 751.071L490.537 750.109C489.468 749.467 488.399 748.772 487.331 748.077C486.209 747.435 484.98 746.74 483.805 746.098L482.041 745.082C481.721 744.922 481.454 744.761 481.133 744.547L480.171 744.066L476.271 742.088C475.63 741.767 474.989 741.392 474.348 741.072L472.264 740.109C461.204 734.868 448.488 730.002 434.917 725.51L429.788 723.853L427.223 722.997L425.941 722.569L424.605 722.195L413.973 719.04C410.393 718.024 406.707 717.061 403.073 716.045C399.494 715.029 395.7 714.12 392.014 713.158L386.457 711.767C385.549 711.553 384.587 711.286 383.679 711.072L380.847 710.43L369.467 707.757C365.673 706.901 361.773 706.099 357.926 705.243C354.079 704.388 350.232 703.532 346.332 702.783L334.631 700.43C332.708 700.003 330.731 699.682 328.754 699.308L322.823 698.185C318.869 697.436 314.969 696.687 310.962 695.992L298.994 693.907C291.033 692.463 282.965 691.179 274.951 689.842L268.753 688.826L261.38 687.543C256.464 686.741 251.549 685.725 246.58 684.762L242.893 684.014L239.153 683.158L231.727 681.5L229.857 681.073L227.987 680.591L224.247 679.629C221.736 678.987 219.278 678.399 216.767 677.704C206.776 674.923 196.784 671.982 186.686 668.452L182.893 667.116L181.023 666.474L179.153 665.779L171.619 662.891L169.749 662.142L167.879 661.34L164.086 659.789L160.292 658.185C159.651 657.918 159.01 657.65 158.422 657.383L156.552 656.527L149.019 653.052C147.737 652.517 146.508 651.822 145.225 651.233L141.432 649.362L137.692 647.49C136.463 646.848 135.181 646.153 133.952 645.458C131.441 644.068 128.93 642.784 126.418 641.34C116.427 635.672 106.489 629.255 96.819 622.196C87.095 615.138 77.584 607.116 68.501 598.293C59.419 589.47 50.71 579.737 42.749 569.096C34.788 558.454 27.521 546.796 21.377 534.39C15.233 521.984 10.157 508.722 6.47 495.033C2.784 481.343 0.433003 467.172 -0.421997 452.948L169.856 442.52C170.23 447.868 171.512 453.001 174.184 458.456C176.855 463.91 181.13 469.739 187.221 475.675C193.258 481.61 201.272 487.439 210.622 492.84C211.798 493.535 213.027 494.123 214.256 494.819C214.843 495.139 215.431 495.46 216.072 495.835L217.996 496.797L219.919 497.76C220.56 498.081 221.148 498.402 221.843 498.722L225.85 500.541L226.865 501.022C227.185 501.182 227.559 501.289 227.88 501.45L229.964 502.305L232.047 503.161L233.063 503.589L234.131 504.016L238.405 505.674L239.474 506.102L240.596 506.476L242.84 507.225C248.717 509.31 254.968 511.129 261.22 512.893L266.028 514.123L268.433 514.765L269.661 515.086L270.89 515.353L275.806 516.476L278.263 517.064L280.775 517.546C284.141 518.187 287.453 518.936 290.926 519.471L296.055 520.38L302.36 521.449C311.015 522.893 319.617 524.23 328.326 525.834L341.363 528.134C345.691 528.882 350.072 529.738 354.453 530.594L360.971 531.823C363.162 532.251 365.353 532.626 367.543 533.107L380.687 535.781C385.068 536.636 389.503 537.599 393.884 538.561C398.318 539.524 402.699 540.433 407.134 541.449L420.438 544.551L423.75 545.353C424.872 545.62 425.994 545.887 427.116 546.208L433.848 547.919C438.337 549.042 442.771 550.165 447.313 551.395C451.854 552.625 456.342 553.855 460.884 555.139L474.561 559.203L476.271 559.737L477.981 560.272L481.454 561.395L488.399 563.641C506.939 569.791 525.853 576.903 545.408 586.154L549.041 587.865C550.27 588.454 551.499 589.095 552.728 589.737L560.154 593.534L562.025 594.496C562.666 594.817 563.253 595.191 563.895 595.512L567.635 597.651C570.146 599.095 572.603 600.486 575.115 601.929L582.648 606.635L586.388 609.042L590.182 611.662C592.693 613.426 595.204 615.191 597.715 616.956C600.226 618.881 602.737 620.806 605.249 622.785C606.477 623.747 607.76 624.71 608.989 625.779L612.729 628.988L616.415 632.25C617.644 633.373 618.873 634.389 620.048 635.565C622.453 637.918 624.857 640.271 627.261 642.624C627.849 643.212 628.437 643.8 629.024 644.442L630.734 646.314L634.207 650.11L637.626 653.961L640.886 657.971L644.145 662.035L645.748 664.067C646.282 664.763 646.763 665.458 647.297 666.153C649.327 668.987 651.304 671.821 653.281 674.655C655.151 677.543 656.968 680.484 658.784 683.372C665.837 695.136 671.607 707.222 676.256 719.04C680.797 730.804 684.27 742.195 687.102 753.103L689.079 761.125C689.399 762.301 689.773 764.173 690.147 765.831C690.521 767.488 690.895 769.2 691.162 770.857L692.071 775.83C692.338 777.488 692.551 779.092 692.819 780.75L693.193 783.21L693.513 785.616C693.727 787.221 693.887 788.878 694.047 790.483C695.33 803.37 695.65 815.88 695.116 828.29L694.902 832.94L694.582 837.54L694.421 839.84L694.208 842.14L693.727 846.74C692.979 852.89 692.177 858.98 691.002 865.03C689.933 871.12 688.544 877.17 687.048 883.21C686.674 884.71 686.247 886.26 685.819 887.75C685.392 889.25 685.018 890.75 684.537 892.3C683.629 895.29 682.72 898.34 681.705 901.34C677.698 913.37 672.783 925.29 666.692 937C660.601 948.72 653.441 960.21 645 971.18L509.504 866.79Z" fill="#96F0B6"/>
<path d="M103.443 627.169L115.732 609.309L112.526 607.063C111.992 606.689 111.458 606.314 110.923 605.94L109.321 604.763L103.016 600.004C98.849 596.689 94.735 593.373 90.727 589.683C82.66 582.518 74.912 574.657 67.646 566.101C60.433 557.491 53.701 548.187 47.77 538.187C41.84 528.187 36.657 517.546 32.49 506.369C35.428 506.316 38.42 506.69 41.519 507.439C44.618 508.187 47.717 509.257 50.816 510.594C52.365 511.289 53.968 511.984 55.518 512.786C57.067 513.588 58.617 514.444 60.166 515.353C61.662 516.262 63.265 517.171 64.814 518.187C66.364 519.15 67.86 520.219 69.356 521.289C72.936 523.802 76.462 526.262 80.095 528.401L82.82 530.005L84.156 530.807L85.545 531.556C87.361 532.572 89.178 533.535 90.994 534.444C92.811 535.353 94.681 536.208 96.498 537.064L99.223 538.294C100.131 538.722 101.093 539.042 102.001 539.417C103.871 540.165 105.687 540.861 107.504 541.556C109.374 542.198 111.191 542.839 113.007 543.427C125.616 547.438 137.371 547.438 147.202 544.283C152.171 542.625 156.659 540.272 160.666 537.171C164.726 534.016 168.253 530.219 171.405 525.727C173.435 522.84 175.198 519.791 176.694 516.797C177.442 515.3 178.137 513.749 178.778 512.198C179.419 510.647 180.007 509.096 180.541 507.599C181.61 504.498 182.465 501.449 183.052 498.508C183.32 497.011 183.64 495.514 183.907 494.07C184.175 492.626 184.335 491.182 184.495 489.792C184.549 489.097 184.602 488.402 184.655 487.706C184.709 487.011 184.762 486.316 184.816 485.674C184.869 484.337 184.923 483.001 184.869 481.771C184.869 480.487 184.869 479.257 184.762 478.027C184.709 477.439 184.655 476.851 184.549 476.263C184.495 475.674 184.442 475.086 184.388 474.552C183.694 470.113 182.465 466.37 180.381 463.322C178.244 460.167 175.519 458.349 171.779 456.958C171.352 456.798 170.871 456.637 170.336 456.477C169.802 456.316 169.321 456.156 168.84 455.996C167.825 455.675 166.703 455.407 165.528 455.14C163.337 454.605 160.666 454.124 158.048 453.643C156.712 453.429 155.216 453.215 153.827 453.001C152.384 452.787 150.888 452.573 149.392 452.413C146.293 452.038 143.141 451.664 139.775 451.45C136.409 451.183 132.936 451.076 129.356 451.076C125.83 451.129 122.197 451.29 118.51 451.771C115.411 452.145 110.656 453.161 108.092 453.964C108.626 460.488 109.855 466.958 111.618 473.322C114.396 471.717 117.335 470.541 119.846 469.739C125.136 468.028 130.104 467.118 134.753 466.691C139.401 466.263 143.515 466.37 147.309 466.851C148.217 466.958 149.125 467.118 149.98 467.279C150.835 467.439 151.69 467.653 152.491 467.867C153.293 468.081 154.041 468.348 154.789 468.616C155.537 468.883 156.285 469.204 156.926 469.525C157.62 469.846 158.208 470.273 158.849 470.648C159.49 471.076 160.078 471.503 160.612 471.985C160.879 472.252 161.147 472.466 161.414 472.733C161.681 473.001 161.948 473.268 162.215 473.535C162.75 474.124 163.177 474.712 163.604 475.354C164.032 475.942 164.406 476.53 164.726 477.172C165.047 477.813 165.261 478.455 165.581 479.097C165.848 479.739 166.062 480.434 166.222 481.129C166.383 481.824 166.49 482.573 166.596 483.268C166.81 484.712 166.864 486.263 166.757 487.867C166.703 489.471 166.543 491.129 166.169 492.84C166.009 493.696 165.742 494.551 165.528 495.407C165.314 496.262 165.047 497.118 164.726 498.027C164.139 499.792 163.391 501.556 162.536 503.321C161.681 505.086 160.612 506.85 159.437 508.562C158.261 510.273 156.979 511.931 155.483 513.535C150.354 519.15 144.637 522.626 137.478 524.016C136.569 524.176 135.661 524.337 134.753 524.39C133.844 524.497 132.883 524.551 131.921 524.551C129.998 524.604 127.967 524.497 125.884 524.23C123.8 523.962 121.663 523.535 119.365 522.947C118.19 522.679 117.121 522.305 115.946 521.93C114.77 521.556 113.595 521.128 112.366 520.647C110.817 520.059 109.374 519.417 107.878 518.775C106.382 518.134 104.886 517.439 103.39 516.743C101.947 515.995 100.451 515.246 98.955 514.497L96.711 513.321L94.521 512.038C93.078 511.182 91.582 510.326 90.14 509.417C88.697 508.508 87.254 507.546 85.812 506.583L83.621 505.086C82.873 504.605 82.232 504.07 81.484 503.535C80.095 502.466 78.652 501.396 77.263 500.273C70.157 494.391 63.479 489.043 56.96 484.391C53.755 482.038 50.549 479.899 47.343 477.974C44.191 475.995 41.092 474.231 37.886 472.733C31.635 469.632 25.384 467.386 19.079 466.049C12.828 464.712 6.52299 464.284 0.218994 464.819C2.19599 482.359 6.63 499.631 12.881 515.888L13.469 517.439L14.11 518.936L15.339 521.93L16.621 524.925C17.049 525.941 17.476 526.904 17.957 527.866C18.865 529.791 19.774 531.77 20.735 533.695C21.216 534.658 21.644 535.62 22.178 536.583L23.674 539.417L26.719 545.032C27.788 546.85 28.857 548.668 29.979 550.486C32.116 554.176 34.467 557.598 36.764 561.074C37.94 562.839 39.168 564.497 40.344 566.154L44.03 571.181L47.824 575.994L49.747 578.4L50.709 579.577L51.724 580.7L55.731 585.245L57.762 587.491L59.792 589.683C62.517 592.571 65.295 595.459 68.127 598.133C79.4 609.255 91.315 618.774 103.443 627.169Z" fill="#202F72"/>
<path d="M166.596 566.315C161.627 574.924 157.139 584.496 154.361 594.549C152.972 599.576 152.01 604.763 151.689 610.004C151.529 612.624 151.476 615.298 151.636 617.972C151.796 620.645 152.063 623.266 152.598 625.886C153.613 631.18 155.322 636.527 157.94 641.554C159.223 644.121 160.772 646.634 162.535 649.094C164.299 651.5 166.275 653.907 168.519 656.206C177.389 665.404 190.212 673.372 206.988 678.238C209.072 678.826 211.156 679.361 213.186 679.842C214.201 680.056 215.216 680.324 216.178 680.484C217.193 680.698 218.155 680.858 219.117 681.019C223.017 681.607 226.757 682.035 230.283 682.195C233.863 682.302 237.229 682.195 240.488 681.874C243.747 681.607 246.793 680.965 249.731 680.27C252.67 679.521 255.448 678.666 258.066 677.543C260.684 676.42 263.142 675.19 265.493 673.8C267.844 672.409 270.034 670.858 272.065 669.254C272.332 669.04 272.599 668.826 272.813 668.612C273.026 668.399 273.24 668.185 273.454 667.971C273.881 667.543 274.309 667.115 274.736 666.634C275.591 665.725 276.392 664.816 277.247 663.853C290.177 648.666 297.337 627.437 300.649 607.704C304.015 587.758 304.069 565.299 296.001 546.636C295.52 545.459 294.986 544.336 294.398 543.16C293.81 542.037 293.169 540.914 292.742 539.844C291.726 537.652 290.605 535.566 289.429 533.588C288.2 531.609 286.918 529.684 285.529 527.866C284.14 525.994 282.644 524.283 281.041 522.625C277.782 519.417 274.255 516.476 270.088 514.123C268.057 512.893 265.92 511.77 263.623 510.861C263.035 510.594 262.447 510.38 261.86 510.166C261.272 509.952 260.684 509.685 260.097 509.471C258.921 509.043 257.639 508.615 256.357 508.294C246.205 505.353 237.55 505.353 229.375 507.599C227.345 508.134 225.314 508.829 223.284 509.685C221.307 510.487 219.384 511.396 217.407 512.465C213.453 514.604 209.713 517.118 205.973 520.005C204.103 521.449 202.233 523 200.363 524.604C198.546 526.208 196.73 527.866 194.913 529.631C191.334 533.16 187.807 536.957 184.441 540.914C177.763 548.882 171.672 557.545 166.596 566.315ZM276.018 603.587C274.522 612.036 272.492 620.271 269.554 627.811C268.111 631.554 266.401 635.191 264.478 638.506C262.554 641.821 260.364 644.87 257.853 647.597C255.395 650.324 252.617 652.677 249.518 654.709C246.419 656.634 243.053 658.131 239.313 659.201C237.443 659.682 235.519 660.163 233.436 660.324C231.405 660.538 229.268 660.645 227.078 660.591C225.955 660.538 224.833 660.484 223.711 660.377C223.124 660.324 222.536 660.27 222.002 660.217C221.414 660.163 220.826 660.056 220.239 659.95C217.834 659.522 215.377 658.987 212.865 658.238C211.583 657.864 210.354 657.49 209.179 657.062C208.003 656.634 206.828 656.153 205.706 655.671C203.462 654.709 201.378 653.639 199.455 652.516C195.554 650.164 192.295 647.49 189.624 644.656C184.227 638.72 181.129 631.982 179.846 624.549C178.564 617.223 179.152 609.469 180.915 601.555C182.678 593.64 185.67 585.673 189.196 577.865C192.723 570.004 196.783 562.518 201.218 555.78C205.599 549.096 210.408 543.106 215.483 538.401C220.506 533.748 225.902 530.219 231.619 528.508C234.504 527.599 237.496 527.117 240.595 527.171C242.198 527.171 243.801 527.278 245.457 527.545C246.258 527.652 247.113 527.866 247.968 528.027C248.823 528.24 249.731 528.401 250.586 528.668C252.349 529.149 254.006 529.791 255.555 530.486C255.929 530.647 256.303 530.861 256.677 531.021C257.051 531.182 257.425 531.395 257.799 531.556C258.547 531.93 259.242 532.358 259.936 532.786C261.325 533.641 262.608 534.604 263.783 535.62C264.959 536.689 266.081 537.705 267.149 538.882C269.233 541.235 270.943 543.909 272.385 546.796C273.881 549.684 275.057 552.839 275.965 556.261C276.873 559.63 277.514 563.267 277.942 567.01C278.369 570.753 278.583 574.657 278.583 578.721C278.369 586.689 277.514 595.191 276.018 603.587Z" fill="#202F72"/>
<path d="M416.216 719.788L422.253 698.986C408.308 694.976 394.043 691.233 379.403 687.917C372.137 686.152 364.71 684.655 357.337 682.997C355.52 682.57 353.65 682.195 351.78 681.821L346.17 680.698C342.43 679.949 338.744 679.201 334.95 678.452C339.492 668.024 348.949 659.896 360.329 655.779C367.008 653.533 373.74 651.287 380.525 649.041C387.257 646.902 394.096 644.763 400.935 642.677C406.759 640.912 412.262 638.773 417.338 636.207C419.849 634.923 422.306 633.586 424.604 632.143C426.901 630.699 429.092 629.148 431.122 627.49C435.236 624.175 438.763 620.378 441.701 616.1C444.64 611.875 446.937 607.17 448.433 601.876C450.41 595.084 450.838 588.079 449.716 581.341C448.594 574.603 445.922 568.079 441.648 562.09C439.511 559.042 436.999 556.261 434.114 553.588C431.229 550.914 427.97 548.454 424.337 546.154C420.704 543.962 416.75 541.983 412.422 540.272C410.232 539.417 407.988 538.614 405.69 537.866C403.393 537.171 400.935 536.582 398.477 536.048C395.859 535.459 393.348 535.032 390.837 534.711C388.326 534.39 385.921 534.123 383.517 534.016C378.762 533.802 374.274 534.016 370 534.604C367.862 534.925 365.779 535.299 363.802 535.78C361.825 536.262 359.848 536.85 358.032 537.545C354.291 538.882 350.819 540.54 347.666 542.518C344.514 544.497 341.575 546.689 339.011 549.203C336.446 551.716 334.149 554.497 332.172 557.438C328.218 563.374 325.6 570.165 324.318 577.437C323.784 580.539 323.463 585.352 323.516 588.079C331.424 589.737 339.278 591.608 347.185 593.427C347.025 590.218 347.346 587.063 347.827 584.496C348.842 579.042 350.765 574.229 353.437 570.165C354.772 568.133 356.268 566.261 357.978 564.603C359.688 562.946 361.558 561.502 363.588 560.272C367.649 557.812 372.404 556.208 377.64 555.459C378.976 555.299 380.311 555.192 381.7 555.138C383.09 555.085 384.479 555.138 385.921 555.192C388.807 555.352 391.799 555.78 394.897 556.422C397.676 557.01 400.294 557.812 402.698 558.775C405.102 559.791 407.346 560.914 409.377 562.251C413.437 564.871 416.75 567.972 419.154 571.502C424.07 578.614 425.512 587.116 423.375 595.512C421.505 602.892 417.551 608.56 411.674 613.212C410.178 614.389 408.629 615.458 406.865 616.474C405.156 617.544 403.286 618.506 401.309 619.469C397.355 621.394 392.921 623.052 388.059 624.656C381.968 626.581 375.877 628.667 369.839 630.645L365.298 632.143L360.756 633.693L351.727 636.848C343.98 639.415 337.301 642.838 331.584 646.795C325.867 650.752 321.219 655.244 317.319 660.217C309.518 670.163 305.03 681.874 302.572 694.281C312.51 695.992 322.181 697.863 332.012 699.682L346.491 702.623L350.124 703.371L353.704 704.12L360.863 705.671C379.884 710.109 398.531 714.655 416.216 719.788Z" fill="#202F72"/>
<path d="M473.44 740.751L547.492 586.903L541.134 583.908L537.928 582.411C536.86 581.93 535.791 581.395 534.776 580.967L522.167 575.673C519.495 579.149 516.129 582.037 512.229 584.283C510.252 585.406 508.168 586.368 505.978 587.17C504.856 587.545 503.734 587.919 502.559 588.24C501.383 588.561 500.208 588.828 499.032 589.095C494.224 590.165 488.988 590.486 483.431 590.111C480.653 590.004 477.821 589.684 474.936 589.149C473.493 588.881 471.997 588.614 470.501 588.24C469.005 587.865 467.509 587.438 466.013 587.063L461.151 602.945C462.861 603.427 464.571 604.015 466.28 604.55L471.409 606.207L476.539 607.865C478.248 608.4 479.958 609.042 481.668 609.63C485.087 610.86 488.507 612.036 491.98 613.266L502.291 617.223L456.289 733.211C457.838 733.799 459.281 734.441 460.724 735.029L465.105 736.847C466.601 737.436 467.937 738.077 469.272 738.719L473.44 740.751Z" fill="#202F72"/>
</g>
<defs>
<clipPath id="clip0_810_6805">
<rect width="760" height="624" fill="white"/>
</clipPath>
</defs>
</svg>
