<svg width="142" height="48" viewBox="0 0 142 48" fill="none" xmlns="http://www.w3.org/2000/svg">
<g clip-path="url(#clip0_810_6403)">
<path d="M130.692 3.39297e-05H11.3144C10.8792 3.39297e-05 10.4493 3.39298e-05 10.0153 0.00243393C9.65202 0.00483393 9.29162 0.0118059 8.92483 0.0176739C8.12801 0.0271561 7.33306 0.0980454 6.5469 0.229726C5.76183 0.364273 5.00136 0.617933 4.29121 0.982126C3.58192 1.3494 2.93382 1.82663 2.37043 2.39652C1.80408 2.9648 1.33198 3.62165 0.972286 4.34183C0.611602 5.06056 0.361503 5.83076 0.230626 6.62581C0.0985054 7.41986 0.0274098 8.22306 0.0179778 9.02821C0.00696567 9.39613 0.00580274 9.76527 0 10.1332V37.8703C0.00580274 38.243 0.00696567 38.6039 0.0179778 38.9766C0.0274127 39.7817 0.0985083 40.5849 0.230626 41.3789C0.361142 42.1744 0.611256 42.9451 0.972286 43.6641C1.33181 44.3819 1.80398 45.0361 2.37043 45.6012C2.93169 46.1736 3.5802 46.6512 4.29121 47.0157C5.00136 47.3808 5.76175 47.636 6.5469 47.7726C7.3332 47.9033 8.12806 47.9742 8.92483 47.9848C9.29162 47.993 9.65202 47.9976 10.0153 47.9976C10.4493 48 10.8793 48 11.3144 48H130.692C131.118 48 131.552 48 131.978 47.9976C132.34 47.9976 132.711 47.993 133.072 47.9848C133.868 47.9747 134.661 47.9038 135.446 47.7726C136.233 47.635 136.996 47.3799 137.71 47.0157C138.42 46.651 139.068 46.1735 139.629 45.6012C140.194 45.0339 140.667 44.3802 141.031 43.6641C141.39 42.9445 141.637 42.174 141.766 41.3789C141.898 40.5848 141.972 39.7818 141.986 38.9766C141.991 38.6039 141.991 38.243 141.991 37.8703C142 37.4344 142 37.0008 142 36.5578V11.4434C142 11.0039 142 10.568 141.991 10.1332C141.991 9.76527 141.991 9.39613 141.986 9.02816C141.972 8.22294 141.898 7.41992 141.766 6.62576C141.637 5.83117 141.389 5.06104 141.031 4.34178C140.299 2.89827 139.137 1.72326 137.71 0.982018C136.996 0.618715 136.233 0.365122 135.446 0.229618C134.661 0.0973573 133.868 0.0264432 133.072 0.0175059C132.711 0.0116499 132.34 0.00461793 131.978 0.00227793C131.552 -0.00012207 131.118 -0.00012207 130.692 -0.00012207V3.39297e-05Z" fill="#A6A6A6"/>
<path d="M10.0211 46.95C9.65954 46.95 9.30672 46.9454 8.94801 46.9372C8.2049 46.9274 7.46354 46.862 6.72998 46.7415C6.04598 46.6224 5.38337 46.4008 4.76401 46.084C4.15032 45.7699 3.59058 45.358 3.10625 44.8641C2.6149 44.376 2.20583 43.8099 1.89525 43.1883C1.58125 42.5626 1.36394 41.8919 1.2509 41.1996C1.12882 40.4558 1.06277 39.7036 1.05332 38.9496C1.0458 38.6966 1.03595 37.8539 1.03595 37.8539V10.1333C1.03595 10.1333 1.04644 9.30356 1.05338 9.05981C1.06243 8.30703 1.1281 7.55603 1.24981 6.81332C1.36306 6.11915 1.58054 5.44655 1.89471 4.8188C2.20415 4.19758 2.61094 3.63108 3.09933 3.14126C3.58717 2.64679 4.14869 2.23277 4.76342 1.9143C5.38137 1.59856 6.04273 1.37853 6.72534 1.26157C7.46131 1.13985 8.20525 1.07404 8.95093 1.0647L10.0217 1.05005H131.973L133.056 1.06529C133.795 1.07417 134.532 1.13939 135.261 1.2604C135.951 1.37882 136.619 1.60039 137.244 1.91782C138.476 2.55963 139.478 3.57504 140.11 4.82173C140.419 5.44514 140.633 6.11226 140.745 6.80044C140.868 7.54924 140.937 8.30613 140.951 9.06509C140.955 9.40493 140.955 9.76997 140.955 10.1333C140.964 10.5833 140.964 11.0116 140.964 11.4434V36.5578C140.964 36.9938 140.964 37.4192 140.955 37.848C140.955 38.2383 140.955 38.5958 140.95 38.9637C140.936 39.7091 140.868 40.4525 140.747 41.1879C140.637 41.8852 140.42 42.5611 140.106 43.1919C139.794 43.8068 139.387 44.368 138.901 44.8547C138.417 45.3513 137.856 45.7656 137.241 46.0817C136.617 46.4009 135.95 46.6233 135.261 46.7415C134.528 46.8626 133.786 46.9281 133.043 46.9372C132.696 46.9454 132.332 46.95 131.978 46.95L130.692 46.9524L10.0211 46.95Z" fill="black"/>
<path d="M29.3921 24.3609C29.4049 23.3593 29.668 22.3773 30.1569 21.5061C30.6458 20.635 31.3447 19.903 32.1886 19.3784C31.6525 18.6042 30.9453 17.9671 30.1232 17.5177C29.301 17.0682 28.3866 16.8188 27.4524 16.7892C25.4597 16.5777 23.5279 17.995 22.5125 17.995C21.4774 17.995 19.914 16.8102 18.2305 16.8452C17.1415 16.8808 16.0802 17.201 15.15 17.7747C14.2198 18.3484 13.4524 19.1559 12.9226 20.1187C10.6276 24.1368 12.3395 30.0421 14.5379 33.29C15.6378 34.8804 16.9233 36.6569 18.6053 36.5939C20.2513 36.5249 20.866 35.5326 22.8528 35.5326C24.8212 35.5326 25.398 36.5939 27.1141 36.5539C28.8803 36.5249 29.9931 34.9564 31.0544 33.3509C31.8447 32.2177 32.4528 30.9652 32.8563 29.6399C31.8302 29.201 30.9545 28.4664 30.3385 27.5277C29.7225 26.5889 29.3933 25.4876 29.3921 24.3609Z" fill="white"/>
<path d="M26.1506 14.6531C27.1136 13.484 27.5881 11.9814 27.4732 10.4644C26.0019 10.6206 24.6429 11.3317 23.6669 12.4559C23.1897 13.0051 22.8242 13.644 22.5913 14.3361C22.3585 15.0283 22.2628 15.76 22.3097 16.4896C23.0456 16.4972 23.7736 16.3359 24.4389 16.0178C25.1042 15.6997 25.6895 15.2331 26.1506 14.6531Z" fill="white"/>
<path d="M50.1982 32.5676H44.5813L43.2324 36.5953H40.8533L46.1736 21.6937H48.6454L53.9656 36.5953H51.5459L50.1982 32.5676ZM45.163 30.709H49.6154L47.4205 24.1723H47.3591L45.163 30.709Z" fill="white"/>
<path d="M65.4555 31.1639C65.4555 34.54 63.6686 36.7092 60.972 36.7092C60.2889 36.7453 59.6095 36.5862 59.0117 36.25C58.4139 35.9138 57.9217 35.4142 57.5916 34.8084H57.5406V40.1896H55.3353V25.731H57.4699V27.5381H57.5105C57.8558 26.9351 58.3562 26.4381 58.9586 26.0999C59.561 25.7617 60.2428 25.5949 60.9314 25.6174C63.6581 25.6174 65.4555 27.7971 65.4555 31.1639ZM63.1888 31.1639C63.1888 28.9643 62.0647 27.5181 60.3497 27.5181C58.6647 27.5181 57.5314 28.9947 57.5314 31.1639C57.5314 33.3529 58.6647 34.8189 60.3497 34.8189C62.0648 34.8189 63.1888 33.3834 63.1888 31.1639Z" fill="white"/>
<path d="M77.2804 31.1638C77.2804 34.54 75.4934 36.7092 72.7968 36.7092C72.1137 36.7453 71.4343 36.5862 70.8365 36.25C70.2387 35.9138 69.7465 35.4142 69.4165 34.8084H69.3654V40.1896H67.1602V25.731H69.2947V27.5381H69.3353C69.6806 26.9351 70.181 26.4381 70.7834 26.0999C71.3858 25.7616 72.0676 25.5949 72.7562 25.6174C75.483 25.6174 77.2804 27.797 77.2804 31.1638ZM75.0137 31.1638C75.0137 28.9642 73.8896 27.5181 72.1745 27.5181C70.4895 27.5181 69.3562 28.9947 69.3562 31.1638C69.3562 33.3529 70.4895 34.8189 72.1745 34.8189C73.8896 34.8189 75.0137 33.3834 75.0137 31.1638H75.0137Z" fill="white"/>
<path d="M85.0956 32.4434C85.259 33.9212 86.6786 34.8914 88.6185 34.8914C90.4773 34.8914 91.8146 33.9211 91.8146 32.5887C91.8146 31.432 91.008 30.7395 89.0982 30.2649L87.1885 29.7996C84.4826 29.1387 83.2264 27.859 83.2264 25.7824C83.2264 23.2113 85.4421 21.4453 88.5884 21.4453C91.7021 21.4453 93.8368 23.2113 93.9086 25.7824H91.6824C91.5492 24.2953 90.3335 23.3977 88.557 23.3977C86.7805 23.3977 85.5649 24.3059 85.5649 25.6277C85.5649 26.6813 86.3413 27.3012 88.2407 27.7757L89.8642 28.1789C92.8876 28.9019 94.1438 30.1301 94.1438 32.3097C94.1438 35.0976 91.9478 36.8437 88.455 36.8437C85.1871 36.8437 82.9807 35.1386 82.8381 32.4433L85.0956 32.4434Z" fill="white"/>
<path d="M98.9032 23.1598V25.7309H100.946V27.4969H98.9032V33.4864C98.9032 34.4168 99.3123 34.8504 100.21 34.8504C100.453 34.8461 100.695 34.8289 100.936 34.7988V36.5543C100.532 36.6306 100.122 36.6651 99.7109 36.6574C97.5358 36.6574 96.6875 35.8312 96.6875 33.7242V27.4969H95.1254V25.7309H96.6875V23.1598H98.9032Z" fill="white"/>
<path d="M102.129 31.1637C102.129 27.7453 104.12 25.5973 107.225 25.5973C110.34 25.5973 112.322 27.7453 112.322 31.1637C112.322 34.5914 110.35 36.7301 107.225 36.7301C104.101 36.7301 102.129 34.5914 102.129 31.1637ZM110.075 31.1637C110.075 28.8188 109.012 27.4348 107.225 27.4348C105.438 27.4348 104.376 28.8293 104.376 31.1637C104.376 33.518 105.438 34.8914 107.225 34.8914C109.012 34.8914 110.074 33.518 110.074 31.1637H110.075Z" fill="white"/>
<path d="M114.14 25.7309H116.243V27.5801H116.294C116.436 27.0026 116.771 26.4922 117.242 26.1347C117.712 25.7773 118.29 25.5945 118.878 25.6172C119.132 25.6163 119.386 25.6443 119.634 25.7005V27.7864C119.313 27.6872 118.978 27.6417 118.643 27.6516C118.323 27.6385 118.003 27.6956 117.707 27.8191C117.41 27.9425 117.144 28.1294 116.925 28.3669C116.707 28.6044 116.542 28.8868 116.442 29.1948C116.342 29.5028 116.309 29.8291 116.345 30.1512V36.5954H114.14L114.14 25.7309Z" fill="white"/>
<path d="M129.801 33.4043C129.505 35.3766 127.605 36.7301 125.175 36.7301C122.05 36.7301 120.11 34.6125 120.11 31.2153C120.11 27.8074 122.06 25.5973 125.083 25.5973C128.055 25.5973 129.924 27.6621 129.924 30.9563V31.7203H122.336V31.8551C122.301 32.2549 122.351 32.6577 122.481 33.0367C122.612 33.4158 122.821 33.7623 123.095 34.0534C123.368 34.3444 123.699 34.5733 124.067 34.7249C124.434 34.8765 124.83 34.9472 125.226 34.9324C125.747 34.9818 126.27 34.8598 126.717 34.5844C127.165 34.3091 127.512 33.8952 127.707 33.4043L129.801 33.4043ZM122.347 30.1617H127.718C127.738 29.8022 127.684 29.4425 127.56 29.105C127.435 28.7676 127.243 28.4597 126.996 28.2008C126.749 27.9419 126.451 27.7375 126.122 27.6004C125.792 27.4633 125.439 27.3966 125.083 27.4043C124.724 27.4022 124.368 27.4719 124.035 27.6096C123.703 27.7473 123.401 27.9502 123.146 28.2065C122.892 28.4629 122.69 28.7677 122.553 29.1033C122.416 29.4388 122.346 29.7986 122.347 30.1618V30.1617Z" fill="white"/>
<path d="M44.8867 10.4771C45.349 10.4436 45.8129 10.5142 46.245 10.6839C46.6771 10.8536 47.0665 11.1182 47.3853 11.4586C47.704 11.7989 47.944 12.2066 48.0881 12.6521C48.2322 13.0976 48.2766 13.5699 48.2183 14.0349C48.2183 16.3224 46.9958 17.6373 44.8867 17.6373H42.3291V10.4771H44.8867ZM43.4288 16.6247H44.7638C45.0942 16.6447 45.4248 16.5899 45.7316 16.4644C46.0384 16.3388 46.3137 16.1457 46.5373 15.899C46.761 15.6523 46.9275 15.3583 47.0246 15.0384C47.1218 14.7184 47.1471 14.3806 47.0989 14.0495C47.1436 13.7197 47.1157 13.384 47.0171 13.0664C46.9184 12.7488 46.7516 12.4572 46.5284 12.2125C46.3052 11.9678 46.0313 11.776 45.7262 11.6509C45.4212 11.5258 45.0925 11.4705 44.7638 11.489H43.4288V16.6247Z" fill="white"/>
<path d="M49.4606 14.9332C49.427 14.5781 49.4672 14.2198 49.5786 13.8813C49.6899 13.5428 49.87 13.2316 50.1073 12.9676C50.3445 12.7037 50.6337 12.4927 50.9563 12.3484C51.2789 12.2041 51.6278 12.1295 51.9805 12.1295C52.3333 12.1295 52.6821 12.2041 53.0047 12.3484C53.3273 12.4927 53.6165 12.7037 53.8538 12.9676C54.0911 13.2316 54.2711 13.5428 54.3825 13.8813C54.4939 14.2198 54.534 14.5781 54.5004 14.9332C54.5347 15.2886 54.495 15.6474 54.3839 15.9864C54.2728 16.3255 54.0929 16.6373 53.8555 16.9018C53.6182 17.1663 53.3288 17.3776 53.0059 17.5223C52.683 17.6669 52.3337 17.7416 51.9805 17.7416C51.6273 17.7416 51.2781 17.6669 50.9552 17.5223C50.6322 17.3776 50.3428 17.1663 50.1055 16.9018C49.8682 16.6373 49.6882 16.3255 49.5771 15.9864C49.4661 15.6474 49.4264 15.2886 49.4606 14.9332ZM53.4157 14.9332C53.4157 13.7619 52.8954 13.0769 51.9823 13.0769C51.0656 13.0769 50.55 13.7619 50.55 14.9332C50.55 16.1139 51.0657 16.7935 51.9823 16.7935C52.8954 16.7935 53.4158 16.1091 53.4158 14.9332H53.4157Z" fill="white"/>
<path d="M61.1997 17.6373H60.1057L59.0014 13.6576H58.9179L57.8182 17.6373H56.7347L55.2618 12.2338H56.3314L57.2886 16.357H57.3674L58.466 12.2338H59.4777L60.5762 16.357H60.6597L61.6122 12.2338H62.6668L61.1997 17.6373Z" fill="white"/>
<path d="M63.9056 12.2338H64.9207V13.0922H64.9995C65.1332 12.7839 65.3587 12.5254 65.6445 12.3528C65.9303 12.1803 66.2623 12.1022 66.5941 12.1295C66.8541 12.1097 67.1152 12.1493 67.3579 12.2455C67.6007 12.3416 67.819 12.4917 67.9966 12.6847C68.1743 12.8777 68.3067 13.1087 68.384 13.3605C68.4614 13.6122 68.4818 13.8784 68.4436 14.1392V17.6372H67.3891V14.407C67.3891 13.5387 67.0159 13.1068 66.236 13.1068C66.0595 13.0985 65.8833 13.1289 65.7194 13.1959C65.5556 13.2629 65.4081 13.3649 65.2869 13.495C65.1657 13.625 65.0737 13.78 65.0173 13.9494C64.9609 14.1188 64.9414 14.2984 64.9601 14.4761V17.6373H63.9056L63.9056 12.2338Z" fill="white"/>
<path d="M70.124 10.1244H71.1785V17.6373H70.124V10.1244Z" fill="white"/>
<path d="M72.6444 14.9333C72.6109 14.5781 72.6511 14.2198 72.7624 13.8813C72.8738 13.5429 73.0539 13.2316 73.2912 12.9676C73.5285 12.7037 73.8177 12.4927 74.1403 12.3484C74.463 12.2041 74.8118 12.1295 75.1646 12.1295C75.5174 12.1295 75.8663 12.2041 76.1889 12.3484C76.5115 12.4927 76.8007 12.7037 77.038 12.9676C77.2753 13.2316 77.4554 13.5429 77.5668 13.8813C77.6782 14.2198 77.7184 14.5781 77.6848 14.9333C77.719 15.2888 77.6793 15.6475 77.5682 15.9866C77.4571 16.3256 77.2771 16.6374 77.0397 16.9019C76.8024 17.1663 76.5129 17.3777 76.19 17.5223C75.8671 17.667 75.5178 17.7417 75.1646 17.7417C74.8114 17.7417 74.4622 17.667 74.1392 17.5223C73.8163 17.3777 73.5269 17.1663 73.2895 16.9019C73.0522 16.6374 72.8722 16.3256 72.7611 15.9866C72.65 15.6475 72.6102 15.2888 72.6444 14.9333ZM76.5995 14.9333C76.5995 13.762 76.0792 13.077 75.1661 13.077C74.2494 13.077 73.7338 13.762 73.7338 14.9333C73.7338 16.114 74.2495 16.7936 75.1661 16.7936C76.0792 16.7936 76.5995 16.1092 76.5995 14.9333H76.5995Z" fill="white"/>
<path d="M78.795 16.1092C78.795 15.1365 79.5112 14.5758 80.7824 14.4961L82.2298 14.4117V13.9453C82.2298 13.3746 81.8566 13.0524 81.1358 13.0524C80.5472 13.0524 80.1393 13.2709 80.0222 13.653H79.0013C79.109 12.7248 79.9724 12.1295 81.1845 12.1295C82.5241 12.1295 83.2797 12.8039 83.2797 13.9453V17.6373H82.2646V16.878H82.1811C82.0118 17.1503 81.774 17.3724 81.492 17.5215C81.21 17.6705 80.894 17.7412 80.5761 17.7264C80.3518 17.7499 80.1251 17.7257 79.9106 17.6553C79.6961 17.5849 79.4986 17.4698 79.3307 17.3174C79.1629 17.165 79.0286 16.9788 78.9363 16.7707C78.844 16.5626 78.7959 16.3373 78.795 16.1092ZM82.2298 15.6475V15.1957L80.9249 15.2801C80.1891 15.3299 79.8553 15.583 79.8553 16.0594C79.8553 16.5457 80.2725 16.8287 80.8462 16.8287C81.0143 16.8459 81.184 16.8288 81.3454 16.7783C81.5068 16.7277 81.6565 16.6449 81.7856 16.5347C81.9147 16.4245 82.0206 16.2892 82.0969 16.1367C82.1732 15.9843 82.2184 15.8179 82.2298 15.6475Z" fill="white"/>
<path d="M84.6657 14.9332C84.6657 13.2258 85.5337 12.1441 86.8837 12.1441C87.2176 12.1286 87.5491 12.2095 87.8392 12.3773C88.1294 12.5452 88.3663 12.7931 88.5223 13.0921H88.6011V10.1244H89.6556V17.6373H88.6451V16.7836H88.5617C88.3937 17.0805 88.1485 17.3254 87.8527 17.4916C87.5569 17.6577 87.2218 17.7389 86.8837 17.7263C85.5244 17.7264 84.6657 16.6447 84.6657 14.9332ZM85.755 14.9332C85.755 16.0793 86.2893 16.7689 87.1827 16.7689C88.0715 16.7689 88.6208 16.0693 88.6208 14.9379C88.6208 13.8117 88.0658 13.1021 87.1827 13.1021C86.295 13.1021 85.755 13.7965 85.755 14.9332H85.755Z" fill="white"/>
<path d="M94.0187 14.9332C93.9851 14.5781 94.0253 14.2198 94.1367 13.8813C94.248 13.5428 94.4281 13.2316 94.6654 12.9676C94.9026 12.7037 95.1918 12.4927 95.5144 12.3484C95.837 12.2041 96.1859 12.1295 96.5386 12.1295C96.8914 12.1295 97.2402 12.2041 97.5628 12.3484C97.8854 12.4927 98.1746 12.7037 98.4119 12.9676C98.6491 13.2316 98.8292 13.5428 98.9406 13.8813C99.0519 14.2198 99.0921 14.5781 99.0585 14.9332C99.0928 15.2886 99.0531 15.6474 98.942 15.9864C98.8309 16.3255 98.651 16.6373 98.4136 16.9018C98.1763 17.1663 97.8869 17.3776 97.564 17.5223C97.2411 17.6669 96.8918 17.7416 96.5386 17.7416C96.1854 17.7416 95.8362 17.6669 95.5133 17.5223C95.1903 17.3776 94.9009 17.1663 94.6636 16.9018C94.4263 16.6373 94.2463 16.3255 94.1352 15.9864C94.0242 15.6474 93.9845 15.2886 94.0187 14.9332ZM97.9738 14.9332C97.9738 13.7619 97.4535 13.0769 96.5404 13.0769C95.6237 13.0769 95.1081 13.7619 95.1081 14.9332C95.1081 16.1139 95.6238 16.7935 96.5404 16.7935C97.4535 16.7935 97.9738 16.1091 97.9738 14.9332Z" fill="white"/>
<path d="M100.473 12.2338H101.489V13.0922H101.567C101.701 12.7839 101.927 12.5254 102.212 12.3528C102.498 12.1803 102.83 12.1022 103.162 12.1295C103.422 12.1097 103.683 12.1493 103.926 12.2455C104.169 12.3416 104.387 12.4917 104.565 12.6847C104.742 12.8777 104.875 13.1087 104.952 13.3605C105.029 13.6122 105.05 13.8784 105.012 14.1392V17.6372H103.957V14.407C103.957 13.5387 103.584 13.1068 102.804 13.1068C102.627 13.0985 102.451 13.1289 102.287 13.1959C102.124 13.2629 101.976 13.3649 101.855 13.495C101.734 13.625 101.642 13.78 101.585 13.9494C101.529 14.1188 101.509 14.2984 101.528 14.4761V17.6373H100.473V12.2338Z" fill="white"/>
<path d="M110.97 10.8884V12.2583H112.128V13.1566H110.97V15.9351C110.97 16.5011 111.201 16.749 111.726 16.749C111.86 16.7485 111.994 16.7403 112.128 16.7244V17.6126C111.939 17.6469 111.747 17.6651 111.554 17.6671C110.382 17.6671 109.915 17.2499 109.915 16.2081V13.1565H109.066V12.2583H109.915V10.8884H110.97Z" fill="white"/>
<path d="M113.568 10.1244H114.614V13.1021H114.697C114.837 12.7909 115.069 12.531 115.361 12.3578C115.652 12.1846 115.989 12.1065 116.326 12.1342C116.585 12.1199 116.844 12.1636 117.084 12.262C117.324 12.3605 117.539 12.5113 117.715 12.7037C117.891 12.8961 118.022 13.1254 118.1 13.3751C118.179 13.6249 118.201 13.889 118.167 14.1486V17.6373H117.111V14.4117C117.111 13.5486 116.714 13.1115 115.968 13.1115C115.787 13.0965 115.605 13.1217 115.434 13.1853C115.264 13.249 115.109 13.3496 114.981 13.4801C114.853 13.6105 114.754 13.7678 114.692 13.9407C114.631 14.1137 114.607 14.2982 114.623 14.4814V17.6373H113.568L113.568 10.1244Z" fill="white"/>
<path d="M124.316 16.1783C124.172 16.6722 123.862 17.0993 123.439 17.3851C123.015 17.6709 122.506 17.7971 122 17.7416C121.648 17.751 121.298 17.6828 120.975 17.5418C120.652 17.4007 120.362 17.1902 120.128 16.9249C119.893 16.6595 119.718 16.3456 119.615 16.005C119.512 15.6645 119.484 15.3053 119.532 14.9525C119.485 14.5987 119.514 14.2388 119.616 13.8971C119.719 13.5555 119.893 13.2402 120.127 12.9725C120.36 12.7048 120.648 12.491 120.97 12.3456C121.293 12.2001 121.642 12.1264 121.996 12.1295C123.482 12.1295 124.379 13.1567 124.379 14.8535V15.2256H120.606V15.2854C120.59 15.4836 120.614 15.6832 120.678 15.8713C120.743 16.0594 120.845 16.2319 120.979 16.3776C121.113 16.5234 121.276 16.6392 121.456 16.7177C121.637 16.7962 121.832 16.8356 122.029 16.8334C122.281 16.864 122.537 16.818 122.763 16.7014C122.99 16.5847 123.177 16.4027 123.3 16.1783L124.316 16.1783ZM120.606 14.4369H123.305C123.318 14.2556 123.294 14.0734 123.233 13.9021C123.173 13.7309 123.078 13.5743 122.954 13.4425C122.83 13.3106 122.68 13.2065 122.514 13.1367C122.348 13.0668 122.169 13.0329 121.99 13.0371C121.807 13.0348 121.626 13.0694 121.457 13.1389C121.288 13.2085 121.135 13.3115 121.006 13.442C120.877 13.5724 120.775 13.7277 120.707 13.8985C120.638 14.0694 120.604 14.2525 120.606 14.4369H120.606Z" fill="white"/>
</g>
<defs>
<clipPath id="clip0_810_6403">
<rect width="142" height="48" fill="white"/>
</clipPath>
</defs>
</svg>
