<svg width="160" height="48" viewBox="0 0 160 48" fill="none" xmlns="http://www.w3.org/2000/svg">
<path d="M154.074 0H5.92593C2.65313 0 0 2.68629 0 6V42C0 45.3137 2.65313 48 5.92593 48H154.074C157.347 48 160 45.3137 160 42V6C160 2.68629 157.347 0 154.074 0Z" fill="black"/>
<path d="M154.074 0.96C155.394 0.96 156.66 1.491 157.594 2.43618C158.527 3.38137 159.052 4.66331 159.052 6V42C159.052 43.3367 158.527 44.6186 157.594 45.5638C156.66 46.509 155.394 47.04 154.074 47.04H5.92593C4.60574 47.04 3.33962 46.509 2.40611 45.5638C1.47259 44.6186 0.948148 43.3367 0.948148 42V6C0.948148 4.66331 1.47259 3.38137 2.40611 2.43618C3.33962 1.491 4.60574 0.96 5.92593 0.96H154.074ZM154.074 0H5.92593C4.35427 0 2.84699 0.632141 1.73566 1.75736C0.624337 2.88258 0 4.4087 0 6V42C0 43.5913 0.624337 45.1174 1.73566 46.2426C2.84699 47.3679 4.35427 48 5.92593 48H154.074C155.646 48 157.153 47.3679 158.264 46.2426C159.376 45.1174 160 43.5913 160 42V6C160 4.4087 159.376 2.88258 158.264 1.75736C157.153 0.632141 155.646 0 154.074 0Z" fill="#A6A6A6"/>
<path d="M56.2015 12.2883C56.2217 12.7284 56.1533 13.1681 56.0005 13.5807C55.8477 13.9932 55.6136 14.3701 55.3126 14.6883C54.9765 15.0418 54.5706 15.3196 54.1213 15.5036C53.6721 15.6876 53.1895 15.7737 52.7052 15.7563C51.9704 15.7504 51.2536 15.5252 50.6446 15.1087C50.0357 14.6922 49.5617 14.103 49.282 13.415C49.0024 12.7269 48.9295 11.9706 49.0725 11.2408C49.2155 10.5109 49.568 9.84009 50.086 9.31226C50.4264 8.9604 50.8344 8.683 51.285 8.49724C51.7355 8.31147 52.2189 8.22129 52.7052 8.23226C53.2063 8.23057 53.7024 8.33266 54.163 8.53226C54.5919 8.7074 54.9736 8.98293 55.2771 9.33626L54.6489 9.97226C54.4124 9.68737 54.1136 9.46209 53.7763 9.31422C53.4389 9.16635 53.0723 9.09995 52.7052 9.12026C52.335 9.11842 51.9683 9.19229 51.6269 9.33745C51.2856 9.4826 50.9768 9.69605 50.7189 9.96499C50.461 10.2339 50.2594 10.5528 50.1262 10.9026C49.993 11.2523 49.931 11.6256 49.9437 12.0003C49.936 12.5596 50.092 13.1088 50.3921 13.5785C50.6923 14.0481 51.1231 14.4173 51.6302 14.6394C52.1373 14.8614 52.698 14.9265 53.2416 14.8262C53.7851 14.726 54.2872 14.4651 54.6845 14.0763C55.0492 13.6761 55.2595 13.1565 55.2771 12.6123H52.7052V11.7483H56.1541C56.1857 11.9265 56.2016 12.1072 56.2015 12.2883ZM61.6297 9.28826H58.4297V11.5683H61.3452V12.4323H58.4297V14.7123H61.6297V15.6003H57.4815V8.40026H61.6297V9.28826ZM65.5171 15.6003H64.6045V9.28826H62.6134V8.40026H67.5556V9.28826H65.5171V15.6003ZM71.04 15.6003V8.40026H71.9526V15.6003H71.04ZM76.0059 15.6003H75.0934V9.28826H73.1022V8.40026H77.9852V9.28826H76.0059V15.6003ZM87.2415 14.6643C86.5486 15.3619 85.6112 15.7535 84.6341 15.7535C83.657 15.7535 82.7196 15.3619 82.0267 14.6643C81.3532 13.9425 80.978 12.9872 80.978 11.9943C80.978 11.0013 81.3532 10.046 82.0267 9.32426C82.3682 8.97595 82.7744 8.69951 83.2219 8.51086C83.6694 8.32222 84.1494 8.2251 84.6341 8.2251C85.1188 8.2251 85.5988 8.32222 86.0463 8.51086C86.4938 8.69951 86.9 8.97595 87.2415 9.32426C87.9176 10.0447 88.2946 11.0005 88.2946 11.9943C88.2946 12.988 87.9176 13.9439 87.2415 14.6643ZM82.7022 14.0643C83.2153 14.5816 83.91 14.8721 84.6341 14.8721C85.3582 14.8721 86.0529 14.5816 86.566 14.0643C87.0723 13.4991 87.3528 12.7633 87.3528 12.0003C87.3528 11.2372 87.0723 10.5014 86.566 9.93626C86.0529 9.41891 85.3582 9.12845 84.6341 9.12845C83.91 9.12845 83.2153 9.41891 82.7022 9.93626C82.1959 10.5014 81.9154 11.2372 81.9154 12.0003C81.9154 12.7633 82.1959 13.4991 82.7022 14.0643ZM89.5763 15.6003V8.40026H90.6904L94.1511 14.0043V8.40026H95.0637V15.6003H94.1156L90.5008 9.73226V15.6003H89.5763Z" fill="white" stroke="white" stroke-width="0.2" stroke-miterlimit="10"/>
<path d="M80.7585 26.0999C79.7633 26.1047 78.7918 26.4078 77.9666 26.9711C77.1414 27.5343 76.4994 28.3325 76.1218 29.2648C75.7442 30.1971 75.6479 31.2218 75.8449 32.2095C76.0419 33.1972 76.5235 34.1037 77.2289 34.8146C77.9342 35.5254 78.8318 36.0088 79.8082 36.2036C80.7847 36.3985 81.7962 36.2961 82.7153 35.9094C83.6343 35.5227 84.4196 34.869 84.972 34.0308C85.5244 33.1927 85.8193 32.2076 85.8193 31.1999C85.8289 30.5254 85.7045 29.8559 85.4532 29.2311C85.202 28.6064 84.8292 28.0392 84.357 27.5633C83.8849 27.0875 83.3229 26.7127 82.7047 26.4613C82.0865 26.2099 81.4246 26.087 80.7585 26.0999ZM80.7585 34.2959C80.1465 34.3393 79.5357 34.1952 79.0056 33.8824C78.4755 33.5696 78.0506 33.1026 77.7861 32.542C77.5216 31.9815 77.4298 31.3534 77.5226 30.7393C77.6154 30.1252 77.8884 29.5536 78.3063 29.0988C78.7242 28.6439 79.2676 28.3269 79.8658 28.1889C80.464 28.0508 81.0894 28.0982 81.6607 28.3248C82.2319 28.5514 82.7227 28.9468 83.069 29.4596C83.4154 29.9723 83.6015 30.5787 83.603 31.1999C83.6221 31.5935 83.5631 31.987 83.4296 32.3572C83.2961 32.7274 83.0908 33.0668 82.8257 33.3553C82.5605 33.6439 82.2411 33.8758 81.886 34.0373C81.531 34.1989 81.1476 34.2868 80.7585 34.2959ZM69.7245 26.0999C68.7287 26.1023 67.756 26.4034 66.9293 26.9653C66.1025 27.5271 65.4587 28.3244 65.0793 29.2565C64.6999 30.1886 64.6018 31.2137 64.7975 32.2022C64.9932 33.1907 65.4739 34.0983 66.1788 34.8104C66.8837 35.5224 67.7812 36.007 68.758 36.2028C69.7347 36.3986 70.7469 36.2969 71.6666 35.9105C72.5863 35.5242 73.3723 34.8705 73.9253 34.0321C74.4782 33.1937 74.7733 32.2081 74.7733 31.1999C74.783 30.5254 74.6585 29.8559 74.4073 29.2311C74.1561 28.6064 73.7833 28.0392 73.3111 27.5633C72.8389 27.0875 72.277 26.7127 71.6588 26.4613C71.0406 26.2099 70.3787 26.087 69.7126 26.0999H69.7245ZM69.7245 34.2959C69.1121 34.3417 68.5003 34.1998 67.9688 33.8886C67.4372 33.5774 67.0105 33.1114 66.7441 32.5512C66.4778 31.9911 66.3842 31.3627 66.4755 30.7479C66.5668 30.1331 66.8388 29.5604 67.2561 29.1044C67.6734 28.6483 68.2166 28.33 68.815 28.1908C69.4135 28.0517 70.0394 28.0982 70.6114 28.3244C71.1834 28.5505 71.6748 28.9457 72.0219 29.4586C72.3689 29.9714 72.5554 30.5782 72.557 31.1999C72.5761 31.5935 72.5172 31.987 72.3837 32.3572C72.2502 32.7274 72.0448 33.0668 71.7797 33.3553C71.5146 33.6439 71.1951 33.8758 70.8401 34.0373C70.4851 34.1989 70.1017 34.2868 69.7126 34.2959H69.7245ZM56.5807 27.6719V29.8319H61.7007C61.6205 30.8493 61.2028 31.8093 60.5156 32.5559C60.0033 33.0842 59.3875 33.4981 58.7078 33.7709C58.0281 34.0437 57.2995 34.1694 56.5689 34.1399C55.0601 34.1399 53.6131 33.5331 52.5462 32.4529C51.4794 31.3726 50.88 29.9076 50.88 28.3799C50.88 26.8523 51.4794 25.3872 52.5462 24.307C53.6131 23.2268 55.0601 22.6199 56.5689 22.6199C58.0122 22.5961 59.4059 23.1528 60.4444 24.1679L61.9496 22.6439C61.2486 21.9252 60.4121 21.3562 59.4899 20.9707C58.5677 20.5853 57.5784 20.3912 56.5807 20.3999C55.5271 20.3584 54.476 20.5327 53.4905 20.9123C52.505 21.2919 51.6053 21.869 50.8453 22.6091C50.0854 23.3492 49.4808 24.237 49.0678 25.2194C48.6549 26.2017 48.442 27.2583 48.442 28.3259C48.442 29.3935 48.6549 30.4502 49.0678 31.4325C49.4808 32.4148 50.0854 33.3026 50.8453 34.0427C51.6053 34.7828 52.505 35.3599 53.4905 35.7396C54.476 36.1192 55.5271 36.2934 56.5807 36.2519C57.5952 36.2983 58.6077 36.1242 59.5502 35.7413C60.4926 35.3584 61.3431 34.7755 62.0444 34.0319C63.2861 32.6506 63.9491 30.8348 63.8933 28.9679C63.8972 28.5131 63.8575 28.059 63.7748 27.6119L56.5807 27.6719ZM110.281 29.3519C109.972 28.4312 109.394 27.6273 108.624 27.0465C107.854 26.4658 106.927 26.1357 105.967 26.0999C105.319 26.0986 104.677 26.232 104.082 26.4918C103.487 26.7515 102.95 27.1322 102.506 27.6102C102.062 28.0882 101.719 28.6533 101.499 29.2708C101.279 29.8882 101.186 30.5448 101.227 31.1999C101.212 31.8706 101.332 32.5374 101.577 33.1604C101.823 33.7833 102.19 34.3498 102.657 34.8258C103.124 35.3019 103.681 35.6777 104.294 35.931C104.908 36.1843 105.566 36.3098 106.228 36.2999C107.057 36.3044 107.874 36.1007 108.607 35.707C109.339 35.3133 109.963 34.7419 110.424 34.0439L108.705 32.8439C108.449 33.2769 108.086 33.635 107.651 33.8832C107.217 34.1314 106.727 34.2612 106.228 34.2599C105.715 34.2797 105.207 34.1427 104.772 33.8666C104.337 33.5905 103.993 33.1882 103.787 32.7119L110.53 29.8919L110.281 29.3519ZM103.407 31.0559C103.383 30.6848 103.433 30.3125 103.553 29.9609C103.672 29.6092 103.86 29.2854 104.105 29.0082C104.35 28.7311 104.648 28.5062 104.98 28.3468C105.312 28.1874 105.672 28.0967 106.039 28.0799C106.421 28.0544 106.802 28.1432 107.135 28.3352C107.468 28.5272 107.738 28.814 107.911 29.1599L103.407 31.0559ZM97.9319 35.9999H100.148V20.9999H97.9319V35.9999ZM94.3052 27.2399H94.2222C93.8882 26.8618 93.479 26.5594 93.0215 26.3526C92.564 26.1458 92.0685 26.0393 91.5674 26.0399C90.2722 26.1035 89.0508 26.6692 88.1564 27.6198C87.262 28.5704 86.7631 29.833 86.7631 31.1459C86.7631 32.4588 87.262 33.7214 88.1564 34.672C89.0508 35.6226 90.2722 36.1883 91.5674 36.2519C92.0696 36.2605 92.5676 36.1575 93.0263 35.9501C93.485 35.7428 93.8932 35.4362 94.2222 35.0519H94.2933V35.7839C94.2933 37.7399 93.2622 38.7839 91.603 38.7839C91.0503 38.7708 90.514 38.5915 90.0624 38.2688C89.6107 37.9462 89.2641 37.4947 89.0667 36.9719L87.1348 37.7879C87.4985 38.6836 88.1181 39.4488 88.9142 39.9854C89.7103 40.5221 90.6466 40.8057 91.603 40.7999C94.1985 40.7999 96.3437 39.2519 96.3437 35.4839V26.3999H94.3052V27.2399ZM91.7689 34.2959C91.0044 34.2277 90.2929 33.872 89.7745 33.2989C89.2562 32.7259 88.9687 31.977 88.9687 31.1999C88.9687 30.4229 89.2562 29.674 89.7745 29.1009C90.2929 28.5278 91.0044 28.1721 91.7689 28.1039C92.1479 28.1236 92.5193 28.2199 92.861 28.3872C93.2027 28.5544 93.5079 28.7892 93.7586 29.0777C94.0094 29.3662 94.2005 29.7026 94.3208 30.0671C94.4412 30.4316 94.4882 30.8167 94.4593 31.1999C94.4916 31.5848 94.4465 31.9722 94.3267 32.3389C94.2069 32.7056 94.0149 33.0439 93.7623 33.3333C93.5097 33.6227 93.2018 33.8572 92.8571 34.0227C92.5124 34.1881 92.1382 34.2811 91.757 34.2959H91.7689ZM120.664 20.9999H115.366V35.9999H117.582V30.3119H120.676C121.307 30.3579 121.941 30.2716 122.539 30.0584C123.136 29.8452 123.683 29.5098 124.147 29.0729C124.611 28.6361 124.98 28.1072 125.233 27.5193C125.486 26.9314 125.616 26.2971 125.616 25.6559C125.616 25.0147 125.486 24.3804 125.233 23.7925C124.98 23.2046 124.611 22.6758 124.147 22.2389C123.683 21.8021 123.136 21.4666 122.539 21.2534C121.941 21.0403 121.307 20.954 120.676 20.9999H120.664ZM120.664 28.1999H117.57V23.0879H120.711C121.385 23.0879 122.032 23.3591 122.509 23.8418C122.985 24.3245 123.253 24.9793 123.253 25.6619C123.253 26.3446 122.985 26.9993 122.509 27.482C122.032 27.9647 121.385 28.2359 120.711 28.2359L120.664 28.1999ZM134.329 26.0399C133.522 25.9911 132.719 26.182 132.018 26.5892C131.316 26.9964 130.748 27.6021 130.382 28.3319L132.35 29.1599C132.544 28.7979 132.837 28.5009 133.195 28.3049C133.553 28.1089 133.959 28.0224 134.364 28.0559C134.646 28.0227 134.931 28.0464 135.203 28.1259C135.475 28.2054 135.729 28.3389 135.95 28.5188C136.17 28.6986 136.353 28.9211 136.488 29.1734C136.623 29.4256 136.707 29.7025 136.735 29.9879V30.1439C136.023 29.7623 135.229 29.5645 134.424 29.5679C132.302 29.5679 130.157 30.7679 130.157 32.9399C130.178 33.403 130.29 33.8572 130.488 34.2756C130.685 34.694 130.963 35.068 131.306 35.3757C131.648 35.6833 132.048 35.9183 132.482 36.0668C132.916 36.2152 133.374 36.2741 133.831 36.2399C134.389 36.2805 134.948 36.1682 135.448 35.9148C135.949 35.6615 136.373 35.2764 136.676 34.7999H136.747V35.9999H138.88V30.2279C138.88 27.5999 136.913 26.0759 134.388 26.0759L134.329 26.0399ZM134.056 34.2599C133.333 34.2599 132.326 33.8879 132.326 32.9879C132.326 31.7879 133.582 31.3919 134.696 31.3919C135.4 31.3743 136.096 31.5484 136.711 31.8959C136.637 32.5456 136.334 33.1463 135.857 33.5873C135.38 34.0283 134.761 34.28 134.116 34.2959L134.056 34.2599ZM146.655 26.3999L144.119 32.9039H144.047L141.416 26.3999H139.046L142.993 35.4959L140.741 40.5479H143.052L149.12 26.3999H146.655ZM126.732 35.9999H128.948V20.9999H126.732V35.9999Z" fill="white"/>
<path d="M12.3733 9.04824C11.9871 9.51757 11.7921 10.1184 11.8282 10.7282V37.2722C11.7921 37.8821 11.9871 38.4829 12.3733 38.9522L12.4563 39.0362L27.1408 24.1802V23.8322L12.4563 8.96423L12.3733 9.04824Z" fill="url(#paint0_linear_913_3225)"/>
<path d="M32 29.1363L27.1407 24.1803V23.8323L32 18.8643L32.1067 18.9243L37.9259 22.2723C39.5852 23.2203 39.5852 24.7803 37.9259 25.7403L32.1304 29.0763L32 29.1363Z" fill="url(#paint1_linear_913_3225)"/>
<path d="M32.1422 29.0639L27.1408 23.9999L12.3734 38.9519C12.7116 39.2529 13.143 39.4248 13.5931 39.438C14.0432 39.4511 14.4838 39.3047 14.8385 39.0239L32.1541 29.0639" fill="url(#paint2_linear_913_3225)"/>
<path d="M32.1422 18.9367L14.8266 8.97669C14.4719 8.69591 14.0313 8.54943 13.5812 8.56258C13.1311 8.57573 12.6997 8.74767 12.3615 9.04869L27.1407 24.0007L32.1422 18.9367Z" fill="url(#paint3_linear_913_3225)"/>
<path opacity="0.2" d="M32 28.9556L14.8267 38.8556C14.4845 39.1146 14.0687 39.2546 13.6415 39.2546C13.2143 39.2546 12.7985 39.1146 12.4563 38.8556L12.3734 38.9396L12.4563 39.0236C12.7977 39.2844 13.2138 39.4256 13.6415 39.4256C14.0692 39.4256 14.4853 39.2844 14.8267 39.0236L32.1422 29.0636L32 28.9556Z" fill="black"/>
<path opacity="0.12" d="M12.3733 38.7839C11.9871 38.3145 11.7921 37.7137 11.8282 37.1039V37.2839C11.7921 37.8937 11.9871 38.4945 12.3733 38.9639L12.4563 38.8799L12.3733 38.7839ZM37.9259 25.5599L32 28.9559L32.1067 29.0639L37.9259 25.7279C38.2561 25.5708 38.5396 25.3284 38.7477 25.025C38.9557 24.7216 39.0811 24.368 39.1111 23.9999C39.0445 24.3343 38.903 24.6489 38.6975 24.9193C38.4921 25.1897 38.2281 25.4089 37.9259 25.5599Z" fill="black"/>
<path opacity="0.25" d="M14.8267 9.1438L37.9259 22.4398C38.2281 22.5908 38.492 22.81 38.6975 23.0804C38.903 23.3508 39.0444 23.6654 39.1111 23.9998C39.0811 23.6317 38.9557 23.2781 38.7476 22.9747C38.5395 22.6713 38.2561 22.4289 37.9259 22.2718L14.8267 8.9758C13.1674 8.0278 11.8163 8.8198 11.8163 10.7398V10.9198C11.8518 8.9878 13.1792 8.1958 14.8267 9.1438Z" fill="white"/>
<defs>
<linearGradient id="paint0_linear_913_3225" x1="25.837" y1="10.4522" x2="5.7026" y2="30.3381" gradientUnits="userSpaceOnUse">
<stop stop-color="#00A0FF"/>
<stop offset="0.01" stop-color="#00A1FF"/>
<stop offset="0.26" stop-color="#00BEFF"/>
<stop offset="0.51" stop-color="#00D2FF"/>
<stop offset="0.76" stop-color="#00DFFF"/>
<stop offset="1" stop-color="#00E3FF"/>
</linearGradient>
<linearGradient id="paint1_linear_913_3225" x1="40.0948" y1="24.0003" x2="11.4252" y2="24.0003" gradientUnits="userSpaceOnUse">
<stop stop-color="#FFE000"/>
<stop offset="0.41" stop-color="#FFBD00"/>
<stop offset="0.78" stop-color="#FFA500"/>
<stop offset="1" stop-color="#FF9C00"/>
</linearGradient>
<linearGradient id="paint2_linear_913_3225" x1="29.4282" y1="26.7599" x2="2.11843" y2="53.7206" gradientUnits="userSpaceOnUse">
<stop stop-color="#FF3A44"/>
<stop offset="1" stop-color="#C31162"/>
</linearGradient>
<linearGradient id="paint3_linear_913_3225" x1="8.65182" y1="0.216693" x2="20.8429" y2="12.2572" gradientUnits="userSpaceOnUse">
<stop stop-color="#32A071"/>
<stop offset="0.07" stop-color="#2DA771"/>
<stop offset="0.48" stop-color="#15CF74"/>
<stop offset="0.8" stop-color="#06E775"/>
<stop offset="1" stop-color="#00F076"/>
</linearGradient>
</defs>
</svg>
