<svg width="14" height="14" viewBox="0 0 28 28" fill="none" xmlns="http://www.w3.org/2000/svg">
<path d="M21.8769 7.07446L21.8774 7.07495C24.0415 9.1979 24.0392 12.4956 21.8803 14.6036L21.8802 14.6037L14.0002 22.301L6.12031 14.6037L6.12024 14.6036C3.96105 12.4954 3.95918 9.19767 6.11907 7.07887L6.1198 7.07814C6.62602 6.57949 7.22883 6.18295 7.89384 5.91188C8.55879 5.64084 9.27243 5.50077 9.99362 5.5C11.3559 5.5001 12.6665 6.00012 13.6661 6.89802L14.0002 7.19808L14.3343 6.89806C15.3341 6.00028 16.6447 5.50027 18.007 5.5C18.7273 5.50057 19.4401 5.64021 20.1044 5.91061C20.7687 6.18104 21.371 6.57676 21.8769 7.07446Z" stroke="white"/>
</svg>
