<svg width="22" height="22" viewBox="0 0 22 22" fill="none" xmlns="http://www.w3.org/2000/svg">
<path d="M11.0001 5.39173C7.89661 5.39173 5.39193 7.89642 5.39193 10.9999C5.39193 14.1035 7.89661 16.6081 11.0001 16.6081C14.1036 16.6081 16.6083 14.1035 16.6083 10.9999C16.6083 7.89642 14.1036 5.39173 11.0001 5.39173ZM11.0001 14.6449C8.9931 14.6449 7.35521 13.007 7.35521 10.9999C7.35521 8.9929 8.9931 7.35501 11.0001 7.35501C13.0072 7.35501 14.6451 8.9929 14.6451 10.9999C14.6451 13.007 13.0072 14.6449 11.0001 14.6449ZM16.838 3.85501C16.1134 3.85501 15.5283 4.44017 15.5283 5.16478C15.5283 5.88939 16.1134 6.47454 16.838 6.47454C17.5626 6.47454 18.1478 5.89212 18.1478 5.16478C18.148 4.99272 18.1143 4.8223 18.0485 4.6633C17.9828 4.50429 17.8863 4.35982 17.7646 4.23815C17.643 4.11649 17.4985 4.02002 17.3395 3.95427C17.1805 3.88853 17.0101 3.8548 16.838 3.85501ZM21.9322 10.9999C21.9322 9.49056 21.9458 7.99486 21.8611 6.48822C21.7763 4.73822 21.3771 3.18509 20.0974 1.9054C18.815 0.622981 17.2646 0.226497 15.5146 0.141731C14.0052 0.0569656 12.5095 0.0706375 11.0029 0.0706375C9.49349 0.0706375 7.99779 0.0569656 6.49115 0.141731C4.74115 0.226497 3.18802 0.625716 1.90833 1.9054C0.625911 3.18783 0.229427 4.73822 0.144661 6.48822C0.0598953 7.99759 0.0735672 9.49329 0.0735672 10.9999C0.0735672 12.5066 0.0598953 14.005 0.144661 15.5117C0.229427 17.2617 0.628645 18.8148 1.90833 20.0945C3.19075 21.3769 4.74115 21.7734 6.49115 21.8581C8.00052 21.9429 9.49622 21.9292 11.0029 21.9292C12.5122 21.9292 14.0079 21.9429 15.5146 21.8581C17.2646 21.7734 18.8177 21.3742 20.0974 20.0945C21.3798 18.812 21.7763 17.2617 21.8611 15.5117C21.9486 14.005 21.9322 12.5093 21.9322 10.9999ZM19.5259 17.4476C19.3263 17.9452 19.0857 18.3171 18.7001 18.6999C18.3146 19.0855 17.9454 19.3261 17.4478 19.5257C16.0095 20.0972 12.5943 19.9687 11.0001 19.9687C9.40599 19.9687 5.98802 20.0972 4.54974 19.5285C4.05208 19.3288 3.68021 19.0882 3.2974 18.7027C2.91185 18.3171 2.67122 17.948 2.47161 17.4503C1.90286 16.0093 2.03138 12.5941 2.03138 10.9999C2.03138 9.40579 1.90286 5.98783 2.47161 4.54954C2.67122 4.05189 2.91185 3.68001 3.2974 3.2972C3.68294 2.91439 4.05208 2.67103 4.54974 2.47142C5.98802 1.90267 9.40599 2.03118 11.0001 2.03118C12.5943 2.03118 16.0122 1.90267 17.4505 2.47142C17.9482 2.67103 18.3201 2.91165 18.7029 3.2972C19.0884 3.68275 19.329 4.05189 19.5286 4.54954C20.0974 5.98783 19.9689 9.40579 19.9689 10.9999C19.9689 12.5941 20.0974 16.0093 19.5259 17.4476Z" fill="white"/>
</svg>
