<svg width="28" height="28" viewBox="0 0 28 28" fill="none" xmlns="http://www.w3.org/2000/svg">
<path d="M14.5 17C15.7887 17 16.8333 15.8807 16.8333 14.5C16.8333 13.1193 15.7887 12 14.5 12C13.2113 12 12.1667 13.1193 12.1667 14.5C12.1667 15.8807 13.2113 17 14.5 17Z" fill="white"/>
<path d="M22.6667 17C23.9553 17 25 15.8807 25 14.5C25 13.1193 23.9553 12 22.6667 12C21.378 12 20.3333 13.1193 20.3333 14.5C20.3333 15.8807 21.378 17 22.6667 17Z" fill="white"/>
<path d="M6.33333 17C7.622 17 8.66667 15.8807 8.66667 14.5C8.66667 13.1193 7.622 12 6.33333 12C5.04467 12 4 13.1193 4 14.5C4 15.8807 5.04467 17 6.33333 17Z" fill="white"/>
</svg>
