<svg width="21" height="21" viewBox="0 0 21 21" fill="none" xmlns="http://www.w3.org/2000/svg">
<path fill-rule="evenodd" clip-rule="evenodd" d="M9.43607 1.42857C7.31235 1.42857 5.2756 2.27222 3.7739 3.77392C2.2722 5.27562 1.42855 7.31236 1.42855 9.43609C1.42855 11.5598 2.2722 13.5966 3.7739 15.0983C5.2756 16.6 7.31235 17.4436 9.43607 17.4436C11.5598 17.4436 13.5965 16.6 15.0982 15.0983C16.5999 13.5966 17.4436 11.5598 17.4436 9.43609C17.4436 7.31236 16.5999 5.27562 15.0982 3.77392C13.5965 2.27222 11.5598 1.42857 9.43607 1.42857ZM3.16781 3.16783C4.83026 1.50538 7.08502 0.571426 9.43607 0.571426C11.7871 0.571426 14.0419 1.50538 15.7043 3.16783C17.3668 4.83027 18.3007 7.08503 18.3007 9.43609C18.3007 11.6421 17.4784 13.7634 16.0036 15.3901L20.1604 19.5544L19.5538 20.1599L15.3979 15.9965C13.7701 17.4758 11.6456 18.3007 9.43607 18.3007C7.08502 18.3007 4.83026 17.3668 3.16781 15.7044C1.50536 14.0419 0.571411 11.7871 0.571411 9.43609C0.571411 7.08503 1.50536 4.83027 3.16781 3.16783Z" fill="white"/>
</svg>
