<svg width="130" height="39" viewBox="0 0 130 39" fill="none" xmlns="http://www.w3.org/2000/svg">
<path d="M19.4951 0C8.7285 0 0 8.73039 0 19.4996C0 30.2701 8.7285 39 19.4951 39C30.2622 39 38.9903 30.2701 38.9903 19.4996C38.9903 8.73108 30.2627 0.000930703 19.4949 0.000930703L19.4951 0ZM28.4355 28.1241C28.0853 28.6985 27.3371 28.8785 26.7647 28.5286C22.1867 25.7299 16.4245 25.0977 9.63848 26.6483C8.98456 26.7982 8.33273 26.3882 8.18375 25.7343C8.03406 25.0802 8.44214 24.4282 9.0977 24.2792C16.5239 22.581 22.894 23.3119 28.0325 26.4527C28.6052 26.8043 28.7867 27.5517 28.4352 28.1246L28.4355 28.1241ZM30.8216 22.8153C30.3807 23.5308 29.4453 23.7553 28.7309 23.3159C23.4918 20.0946 15.5029 19.1615 9.30466 21.0435C8.50081 21.2863 7.6518 20.8332 7.40783 20.0306C7.16572 19.2265 7.61899 18.3789 8.42143 18.1344C15.5015 15.9857 24.3031 17.0265 30.3209 20.7254C31.0356 21.1655 31.2614 22.1016 30.8214 22.8155L30.8216 22.8153ZM31.0265 17.2864C24.7424 13.5535 14.3768 13.2103 8.37788 15.0314C7.41458 15.3236 6.39585 14.7797 6.10392 13.8161C5.812 12.8521 6.35535 11.8339 7.31935 11.5409C14.2057 9.44991 25.6535 9.8539 32.8875 14.1494C33.7539 14.6637 34.0382 15.7831 33.5246 16.6486C33.0125 17.5153 31.8904 17.801 31.0267 17.2864H31.0265ZM53.0398 18.0017C49.6738 17.1988 49.0746 16.6353 49.0746 15.4512C49.0746 14.3326 50.1275 13.5798 51.6933 13.5798C53.2111 13.5798 54.7162 14.1515 56.2941 15.3283C56.3418 15.3639 56.4016 15.3781 56.4605 15.3688C56.5194 15.36 56.5716 15.3276 56.606 15.2789L58.2496 12.9616C58.3171 12.8661 58.2987 12.7345 58.2077 12.6617C56.3297 11.1544 54.215 10.4216 51.7431 10.4216C48.1087 10.4216 45.5701 12.6032 45.5701 15.7246C45.5701 19.0719 47.76 20.2571 51.5443 21.172C54.7653 21.9141 55.3089 22.5358 55.3089 23.6472C55.3089 24.8788 54.2096 25.6444 52.4406 25.6444C50.4758 25.6444 48.8732 24.9824 47.0804 23.4295C47.036 23.3911 46.975 23.3736 46.9187 23.3769C46.8593 23.3818 46.805 23.4093 46.7673 23.4547L44.9245 25.6484C44.8472 25.7394 44.857 25.8754 44.9464 25.9541C47.0323 27.8167 49.5977 28.8006 52.3661 28.8006C56.2825 28.8006 58.8132 26.6602 58.8132 23.3473C58.8202 20.5508 57.1464 19.0023 53.0468 18.0047L53.0398 18.0017ZM67.6734 14.6812C65.9759 14.6812 64.5835 15.35 63.4354 16.7203V15.1779C63.4354 15.0561 63.3367 14.9569 63.2151 14.9569H60.2011C60.0794 14.9569 59.9809 15.0561 59.9809 15.1779V32.3164C59.9809 32.4382 60.0793 32.5374 60.2011 32.5374H63.2151C63.3367 32.5374 63.4354 32.4382 63.4354 32.3164V26.9065C64.5837 28.1956 65.9763 28.8254 67.6734 28.8254C70.8276 28.8254 74.0207 26.3968 74.0207 21.7541C74.0253 17.1103 70.8313 14.681 67.6769 14.681L67.6734 14.6812ZM70.5159 21.7541C70.5159 24.1183 69.06 25.7681 66.9753 25.7681C64.9143 25.7681 63.3597 24.0433 63.3597 21.7541C63.3597 19.4652 64.9143 17.7402 66.9753 17.7402C69.0262 17.74 70.5161 19.4277 70.5161 21.7539L70.5159 21.7541ZM82.2046 14.6812C78.1426 14.6812 74.9602 17.8098 74.9602 21.8047C74.9602 25.756 78.1207 28.8518 82.1548 28.8518C86.2313 28.8518 89.4234 25.7336 89.4234 21.7541C89.4234 17.7884 86.2527 14.6817 82.2044 14.6817L82.2046 14.6812ZM82.2046 25.7916C80.044 25.7916 78.4152 24.0552 78.4152 21.753C78.4152 19.441 79.9877 17.7632 82.1548 17.7632C84.3294 17.7632 85.9692 19.4996 85.9692 21.8035C85.9692 24.115 84.3862 25.7916 82.2048 25.7916H82.2046ZM98.0977 14.9569H94.781V11.5652C94.781 11.4436 94.6828 11.3444 94.561 11.3444H91.5475C91.4255 11.3444 91.3266 11.4436 91.3266 11.5652V14.9569H89.8774C89.7561 14.9569 89.6579 15.0561 89.6579 15.1779V17.7688C89.6579 17.8904 89.7561 17.9898 89.8774 17.9898H91.3266V24.6939C91.3266 27.4032 92.6747 28.7768 95.3335 28.7768C96.4146 28.7768 97.3115 28.5535 98.1568 28.074C98.2255 28.0356 98.2681 27.9616 98.2681 27.8829V25.4155C98.2681 25.3394 98.2285 25.2674 98.1633 25.2276C98.0977 25.1864 98.016 25.1843 97.9487 25.2176C97.3681 25.5099 96.8068 25.6447 96.1794 25.6447C95.2124 25.6447 94.781 25.2055 94.781 24.2212V17.991H98.0977C98.2194 17.991 98.3174 17.8918 98.3174 17.77V15.1793C98.3221 15.0575 98.2243 14.9583 98.101 14.9583L98.0977 14.9569ZM109.654 14.9702V14.5536C109.654 13.3281 110.124 12.7816 111.177 12.7816C111.806 12.7816 112.31 12.9064 112.875 13.095C112.945 13.1169 113.018 13.1059 113.074 13.0643C113.132 13.0226 113.165 12.9557 113.165 12.885V10.3445C113.165 10.2474 113.103 10.1615 113.009 10.1328C112.412 9.95518 111.648 9.77285 110.504 9.77285C107.72 9.77285 106.249 11.3409 106.249 14.3058V14.9438H104.801C104.679 14.9438 104.58 15.043 104.58 15.1646V17.7688C104.58 17.8904 104.679 17.9898 104.801 17.9898H106.249V28.3306C106.249 28.4524 106.347 28.5516 106.469 28.5516H109.483C109.604 28.5516 109.704 28.4524 109.704 28.3306V17.9905H112.518L116.828 28.3288C116.339 29.415 115.858 29.6311 115.201 29.6311C114.67 29.6311 114.111 29.4725 113.539 29.1596C113.485 29.13 113.421 29.1251 113.363 29.1431C113.306 29.1633 113.257 29.2062 113.233 29.262L112.212 31.5037C112.163 31.6097 112.205 31.734 112.306 31.789C113.373 32.3667 114.336 32.6133 115.525 32.6133C117.751 32.6133 118.981 31.5764 120.065 28.7868L125.294 15.2719C125.321 15.2039 125.313 15.1271 125.271 15.0668C125.23 15.007 125.163 14.9709 125.09 14.9709H121.952C121.858 14.9709 121.774 15.0307 121.743 15.119L118.529 24.3023L115.008 15.1129C114.976 15.0274 114.894 14.9709 114.803 14.9709H109.653L109.654 14.9702ZM102.954 14.9569H99.9398C99.8181 14.9569 99.7189 15.0561 99.7189 15.1779V28.3306C99.7189 28.4524 99.8181 28.5516 99.9398 28.5516H102.954C103.075 28.5516 103.175 28.4524 103.175 28.3306V15.1788C103.175 15.1497 103.169 15.121 103.158 15.0941C103.147 15.0672 103.131 15.0429 103.11 15.0223C103.09 15.0018 103.065 14.9855 103.038 14.9744C103.011 14.9634 102.983 14.9577 102.954 14.9578L102.954 14.9569ZM101.464 8.96814C100.27 8.96814 99.301 9.93493 99.301 11.1293C99.301 12.3243 100.27 13.2922 101.464 13.2922C102.658 13.2922 103.625 12.3243 103.625 11.1293C103.625 9.93517 102.657 8.96814 101.465 8.96814H101.464ZM127.868 19.1858C126.675 19.1858 125.747 18.2276 125.747 17.064C125.747 15.9004 126.687 14.9313 127.879 14.9313C129.072 14.9313 130 15.8892 130 17.0519C130 18.2155 129.059 19.1858 127.868 19.1858H127.868ZM127.879 15.1422C126.793 15.1422 125.971 16.0061 125.971 17.064C125.971 18.1214 126.787 18.9736 127.868 18.9736C128.955 18.9736 129.778 18.1105 129.778 17.0519C129.778 15.9945 128.961 15.1422 127.88 15.1422H127.879ZM128.35 17.2701L128.95 18.1102H128.444L127.904 17.3395H127.439V18.1102H127.016V15.8832H128.009C128.526 15.8832 128.866 16.1479 128.866 16.5936C128.868 16.9588 128.657 17.1818 128.352 17.2701H128.35V17.2701ZM127.991 16.2653H127.439V16.9697H127.991C128.267 16.9697 128.431 16.8349 128.431 16.6172C128.431 16.388 128.266 16.2653 127.991 16.2653H127.991V16.2653Z" fill="white"/>
</svg>
