<svg width="28" height="28" viewBox="0 0 28 28" fill="none" xmlns="http://www.w3.org/2000/svg">
<rect width="28" height="28" fill="url(#paint0_linear_218_1051)"/>
<path d="M18.7994 9.2802C18.4769 8.92768 18.0933 8.64782 17.6708 8.45672C17.2483 8.26563 16.7952 8.16705 16.3375 8.16667C15.4717 8.16683 14.6375 8.51982 14.0001 9.15577C13.3628 8.51972 12.5286 8.1667 11.6628 8.16667C11.2045 8.16719 10.7509 8.26606 10.328 8.4576C9.90505 8.64914 9.52121 8.92957 9.19853 9.28274C7.82221 10.7829 7.8228 13.1293 9.1997 14.6231L14.0001 19.8333L18.8006 14.6231C20.1775 13.1293 20.1781 10.7829 18.7994 9.2802Z" fill="#EDEDED"/>
<defs>
<linearGradient id="paint0_linear_218_1051" x1="27.4167" y1="27.125" x2="-5.55267" y2="12.6278" gradientUnits="userSpaceOnUse">
<stop stop-color="#8D8DE5"/>
<stop offset="1" stop-color="#460DF4"/>
</linearGradient>
</defs>
</svg>
