<svg width="24" height="24" viewBox="0 0 24 24" fill="none" xmlns="http://www.w3.org/2000/svg">
<path d="M23.04 0H0.96C0.429 0 0 0.429 0 0.96V23.04C0 23.571 0.429 24 0.96 24H23.04C23.571 24 24 23.571 24 23.04V0.96C24 0.429 23.571 0 23.04 0ZM17.76 12.72C17.76 12.852 17.652 12.96 17.52 12.96H12.96V17.52C12.96 17.652 12.852 17.76 12.72 17.76H11.28C11.148 17.76 11.04 17.652 11.04 17.52V12.96H6.48C6.348 12.96 6.24 12.852 6.24 12.72V11.28C6.24 11.148 6.348 11.04 6.48 11.04H11.04V6.48C11.04 6.348 11.148 6.24 11.28 6.24H12.72C12.852 6.24 12.96 6.348 12.96 6.48V11.04H17.52C17.652 11.04 17.76 11.148 17.76 11.28V12.72Z" fill="white" fill-opacity="0.7"/>
</svg>
